<?xml version="1.0" encoding="utf-8"?>
<!-- Generator: Adobe Illustrator 21.0.0, SVG Export Plug-In . SVG Version: 6.00 Build 0)  -->
<svg version="1.1" id="Layer_1" xmlns="http://www.w3.org/2000/svg" xmlns:xlink="http://www.w3.org/1999/xlink" x="0px" y="0px"
	 width="1400px" height="980px" viewBox="0 0 1400 980" style="enable-background:new 0 0 1400 980;" xml:space="preserve">
<style type="text/css">
	.st0{fill-rule:evenodd;clip-rule:evenodd;fill:#00813D;}
	.st1{fill-rule:evenodd;clip-rule:evenodd;fill:#DE3C3B;}
	.st2{fill-rule:evenodd;clip-rule:evenodd;}
	.st3{fill-rule:evenodd;clip-rule:evenodd;fill:#E7E5E4;}
	.st4{fill-rule:evenodd;clip-rule:evenodd;fill:#FFFFFF;}
	.st5{fill-rule:evenodd;clip-rule:evenodd;fill:#9CB64F;}
	.st6{fill-rule:evenodd;clip-rule:evenodd;fill:#2595BD;}
</style>
<g>
	<rect y="0" class="st0" width="1400" height="980"/>
	<g>
		<g>
			<g>
				<polygon class="st1" points="626.1,618.7 571.4,652.2 626.1,685.8 680.7,652.2 				"/>
				<polygon class="st2" points="787.3,618.7 732.7,652.2 787.3,685.8 842,652.2 				"/>
				<g>
					<polygon class="st3" points="384,576.4 384,561.3 388.7,561.3 388.7,557 374,557 374,561.3 378.7,561.3 378.7,576.4 					"/>
					<path class="st3" d="M366.6,572c-0.4,0.3-0.9,0.4-1.7,0.4c-0.9,0-1.9-0.1-3-0.4c-1.1-0.3-2.1-0.7-3.1-1.2v4.7
						c1,0.5,1.9,0.8,2.7,1c0.9,0.2,2,0.3,3.3,0.3c1.5,0,2.9-0.3,4.1-0.8c1.2-0.5,2-1.2,2.6-2.2c0.6-0.9,0.9-2,0.9-3.2
						c0-1.3-0.3-2.4-1-3.3c-0.7-0.9-1.8-1.7-3.5-2.4c-1.8-0.8-2.8-1.4-3.2-1.7c-0.4-0.3-0.6-0.6-0.6-1c0-0.4,0.2-0.7,0.5-0.9
						c0.3-0.2,0.8-0.4,1.5-0.4c1.3,0,2.9,0.4,4.7,1.2l1.6-4.1c-2.1-0.9-4.1-1.4-6.2-1.4c-2.3,0-4.1,0.5-5.4,1.5c-1.3,1-2,2.4-2,4.2
						c0,1,0.2,1.8,0.5,2.5c0.3,0.7,0.8,1.3,1.4,1.9c0.6,0.5,1.6,1.1,2.9,1.7c1.4,0.6,2.3,1,2.6,1.3c0.3,0.2,0.6,0.4,0.7,0.6
						c0.2,0.2,0.2,0.4,0.2,0.7C367.1,571.4,367,571.8,366.6,572z"/>
					<path class="st3" d="M336.4,576.4h7.1v-26h-6.3l-8.9,7.3l3.6,4.5l2.9-2.4c0.7-0.6,1.2-1.1,1.6-1.7c-0.1,1.4-0.1,2.9-0.1,4.6
						V576.4z"/>
					<path class="st3" d="M435.9,565.2c0.9-0.9,1.6-1.8,2.1-2.6c0.5-0.8,0.9-1.7,1.2-2.6c0.3-0.9,0.4-1.8,0.4-2.8
						c0-1.4-0.4-2.6-1.1-3.7c-0.7-1.1-1.8-1.9-3.1-2.5c-1.3-0.6-2.8-0.9-4.5-0.9c-1.3,0-2.5,0.1-3.6,0.4c-1.1,0.3-2.1,0.7-3,1.2
						c-0.9,0.5-2,1.4-3.4,2.6l3.9,4.5c1.1-0.9,2-1.6,2.8-2.1c0.8-0.5,1.7-0.7,2.5-0.7c0.8,0,1.4,0.2,1.8,0.6
						c0.4,0.4,0.7,0.9,0.7,1.6c0,0.5-0.1,1.1-0.3,1.6c-0.2,0.5-0.6,1.1-1.2,1.8c-0.6,0.7-1.7,2-3.6,3.9l-6.3,6.4v4.6h18.8v-5.8h-9.8
						v-0.2C433.1,567.9,435,566.2,435.9,565.2z"/>
					<path class="st3" d="M408.5,576.4h7.1v-26h-6.3l-8.9,7.3l3.6,4.5l2.9-2.4c0.7-0.6,1.2-1.1,1.6-1.7c-0.1,1.4-0.1,2.9-0.1,4.6
						V576.4z"/>
					<path class="st3" d="M660,565.4c0.9-0.9,1.6-1.8,2.1-2.6c0.5-0.8,0.9-1.7,1.2-2.6c0.3-0.9,0.4-1.8,0.4-2.8
						c0-1.4-0.4-2.6-1.1-3.7c-0.7-1.1-1.7-1.9-3.1-2.5c-1.3-0.6-2.8-0.9-4.5-0.9c-1.3,0-2.5,0.1-3.6,0.4c-1.1,0.3-2.1,0.7-3,1.2
						c-0.9,0.5-2,1.4-3.4,2.6l3.9,4.5c1.1-0.9,2-1.6,2.8-2.1c0.8-0.5,1.7-0.7,2.5-0.7c0.8,0,1.4,0.2,1.8,0.6
						c0.4,0.4,0.7,0.9,0.7,1.6c0,0.5-0.1,1.1-0.3,1.6c-0.2,0.5-0.6,1.1-1.2,1.8c-0.6,0.7-1.7,2-3.6,3.9l-6.3,6.4v4.6h18.8v-5.8h-9.8
						v-0.2C657.2,568,659.1,566.3,660,565.4z"/>
					<path class="st3" d="M683.9,557.1h-6.9v19.5h4.7v-8.8c0-1.1-0.1-2.8-0.3-4.9h0.1l7.1,13.7h6.9v-19.5h-4.7v8.8
						c0,1.2,0.1,2.8,0.2,4.7H691L683.9,557.1z"/>
					<path class="st3" d="M764.2,565.4c0.9-0.9,1.6-1.8,2.1-2.6c0.5-0.8,0.9-1.7,1.2-2.6c0.3-0.9,0.4-1.8,0.4-2.8
						c0-1.4-0.4-2.6-1.1-3.7c-0.7-1.1-1.8-1.9-3.1-2.5c-1.3-0.6-2.8-0.9-4.5-0.9c-1.3,0-2.5,0.1-3.6,0.4c-1.1,0.3-2.1,0.7-3,1.2
						c-0.9,0.5-2,1.4-3.4,2.6l3.9,4.5c1.1-0.9,2-1.6,2.8-2.1c0.8-0.5,1.7-0.7,2.5-0.7c0.8,0,1.4,0.2,1.8,0.6
						c0.4,0.4,0.7,0.9,0.7,1.6c0,0.5-0.1,1.1-0.3,1.6c-0.2,0.5-0.6,1.1-1.2,1.8c-0.6,0.7-1.7,2-3.6,3.9l-6.3,6.4v4.6h18.8v-5.8h-9.8
						v-0.2C761.4,568,763.3,566.3,764.2,565.4z"/>
					<path class="st3" d="M736.8,576.6h7.1v-26h-6.3l-8.9,7.3l3.6,4.5l2.9-2.4c0.7-0.6,1.2-1.1,1.6-1.7c-0.1,1.4-0.1,2.9-0.1,4.6
						V576.6z"/>
					<path class="st3" d="M716.3,566.4c0-3-0.9-5.3-2.6-6.9c-1.7-1.6-4.1-2.4-7.2-2.4h-6.7v19.5h6.3c3.2,0,5.8-0.9,7.5-2.6
						C715.4,572.2,716.3,569.7,716.3,566.4z M709.8,570.9c-0.7,0.9-1.9,1.4-3.5,1.4h-1.2v-10.9h1.5c1.4,0,2.5,0.4,3.2,1.3
						c0.7,0.9,1.1,2.2,1.1,4C710.9,568.5,710.5,570,709.8,570.9z"/>
					<path class="st3" d="M1036.5,566.3c0-3-0.9-5.3-2.6-6.9c-1.7-1.6-4.1-2.4-7.2-2.4h-6.7v19.5h6.3c3.2,0,5.8-0.9,7.5-2.6
						C1035.6,572,1036.5,569.5,1036.5,566.3z M1029.9,570.7c-0.7,0.9-1.9,1.4-3.5,1.4h-1.2v-10.9h1.5c1.4,0,2.5,0.4,3.2,1.3
						c0.7,0.9,1.1,2.2,1.1,4C1031,568.4,1030.6,569.8,1029.9,570.7z"/>
					<path class="st3" d="M980,570.6c-0.7,0.4-1.8,0.6-3.4,0.6c-1,0-2.1-0.1-3.3-0.4c-1.2-0.3-2.3-0.7-3.5-1.3v5.8
						c1.4,0.5,2.7,0.9,3.9,1.1c1.2,0.2,2.5,0.3,3.9,0.3c3.4,0,6-0.7,8-2.1c1.9-1.4,2.9-3.3,2.9-5.7c0-3.5-2.2-5.6-6.5-6.1v-0.1
						c1.9-0.5,3.3-1.4,4.3-2.5c1-1.2,1.5-2.5,1.5-4.1c0-1.9-0.8-3.3-2.3-4.4c-1.5-1.1-3.6-1.6-6.3-1.6c-1.9,0-3.5,0.2-4.9,0.6
						c-1.4,0.4-2.8,1.1-4.2,2l2.9,4.7c1.8-1.1,3.5-1.7,5.1-1.7c0.9,0,1.6,0.2,2.1,0.5c0.5,0.3,0.8,0.8,0.8,1.5
						c0,1.8-1.8,2.7-5.3,2.7h-1.6v5.3h1.6c1.3,0,2.4,0.1,3.2,0.3c0.8,0.2,1.4,0.5,1.8,0.9c0.4,0.4,0.5,0.9,0.5,1.6
						C981,569.5,980.7,570.2,980,570.6z"/>
					<path class="st3" d="M1084.3,565.2c0.9-0.9,1.6-1.8,2.1-2.6c0.5-0.8,0.9-1.7,1.2-2.6c0.3-0.9,0.4-1.8,0.4-2.8
						c0-1.4-0.4-2.6-1.1-3.7c-0.7-1.1-1.8-1.9-3.1-2.5c-1.3-0.6-2.8-0.9-4.5-0.9c-1.3,0-2.5,0.1-3.6,0.4c-1.1,0.3-2.1,0.7-3,1.2
						c-0.9,0.5-2,1.4-3.4,2.6l3.9,4.5c1.1-0.9,2-1.6,2.8-2.1c0.8-0.5,1.7-0.7,2.5-0.7c0.8,0,1.4,0.2,1.8,0.6
						c0.4,0.4,0.7,0.9,0.7,1.6c0,0.5-0.1,1.1-0.3,1.6c-0.2,0.5-0.6,1.1-1.2,1.8c-0.6,0.7-1.7,2-3.6,3.9l-6.3,6.4v4.6h18.8v-5.8h-9.8
						v-0.2C1081.6,567.9,1083.4,566.1,1084.3,565.2z"/>
					<path class="st3" d="M1015.8,562.7c0-3.8-2.6-5.7-7.9-5.7h-6.4v19.5h5.3v-7.1h1.3l4.1,7.1h6l-5.7-8.5
						C1014.7,566.7,1015.8,564.9,1015.8,562.7z M1007.7,565.4h-1v-4.4h1c1.8,0,2.7,0.7,2.7,2
						C1010.5,564.5,1009.6,565.4,1007.7,565.4z"/>
					<path class="st3" d="M1056.9,576.4h7.1v-26h-6.3l-8.9,7.3l3.6,4.5l2.9-2.4c0.7-0.6,1.2-1.1,1.6-1.7c-0.1,1.4-0.1,2.9-0.1,4.6
						V576.4z"/>
					<path class="st3" d="M256.4,664.3h6.6v-24.2h-5.9l-8.3,6.8l3.4,4.2l2.7-2.3c0.6-0.5,1.1-1.1,1.5-1.6c-0.1,1.3-0.1,2.7-0.1,4.3
						V664.3z"/>
					<polygon class="st3" points="286.1,664.3 286.1,650.2 290.5,650.2 290.5,646.2 276.7,646.2 276.7,650.2 281.2,650.2 
						281.2,664.3 					"/>
					<path class="st3" d="M307.3,662.2c1.5-1.6,2.2-3.9,2.2-7c0-3.1-0.7-5.4-2.2-7c-1.5-1.6-3.7-2.4-6.6-2.4c-2.9,0-5.1,0.8-6.6,2.4
						c-1.5,1.6-2.3,3.9-2.3,6.9c0,3.1,0.8,5.4,2.3,7c1.5,1.6,3.7,2.4,6.5,2.4C303.6,664.6,305.8,663.8,307.3,662.2z M297.1,655.2
						c0-3.5,1.2-5.3,3.7-5.3c1.2,0,2.1,0.4,2.7,1.3c0.6,0.9,0.9,2.2,0.9,4c0,1.8-0.3,3.1-0.9,4c-0.6,0.8-1.5,1.3-2.8,1.3
						C298.3,660.5,297.1,658.8,297.1,655.2z"/>
					<path class="st3" d="M328.6,664.3h6.6v-24.2h-5.9l-8.3,6.8l3.4,4.2l2.7-2.3c0.6-0.5,1.1-1.1,1.5-1.6c-0.1,1.3-0.1,2.7-0.1,4.3
						V664.3z"/>
					<path class="st3" d="M341.7,654.4c-0.7,1-1,2.2-1,3.6c0,2.2,0.8,3.8,2.3,5c1.5,1.2,3.7,1.7,6.5,1.7c2.8,0,5-0.6,6.5-1.8
						c1.6-1.2,2.3-2.8,2.3-5c0-1.2-0.4-2.3-1.1-3.3c-0.7-1-2-2-3.8-3c1.4-0.7,2.5-1.6,3.2-2.5c0.7-1,1-2.1,1-3.4
						c0-1.9-0.7-3.3-2.1-4.4c-1.4-1-3.4-1.5-5.9-1.5c-2.5,0-4.5,0.5-6,1.5c-1.4,1-2.2,2.5-2.2,4.3c0,1.2,0.3,2.3,0.9,3.3
						c0.6,1,1.5,1.9,2.8,2.8C343.5,652.5,342.3,653.4,341.7,654.4z M348.1,645c0.4-0.3,0.9-0.5,1.4-0.5c0.5,0,1,0.2,1.4,0.5
						c0.4,0.3,0.6,0.7,0.6,1.3c0,0.5-0.1,0.9-0.4,1.3c-0.3,0.4-0.8,0.8-1.6,1.2c-1.3-0.7-1.9-1.6-1.9-2.5
						C347.5,645.8,347.7,645.3,348.1,645z M347.3,656c0.4-0.5,1.1-1,2.1-1.6c1.1,0.7,1.9,1.2,2.3,1.8c0.4,0.5,0.6,1.1,0.6,1.6
						c0,1.4-1,2.1-2.9,2.1c-0.9,0-1.5-0.2-2-0.6c-0.5-0.4-0.7-1-0.7-1.6C346.6,657.1,346.8,656.6,347.3,656z"/>
					<path class="st3" d="M462.5,640.2h-7.3l-3.4,12.3c-0.2,0.7-0.4,1.6-0.6,2.7c-0.2,1.2-0.4,2.1-0.5,2.9c-0.1-1.1-0.4-3-1.1-5.7
						l-3.3-12.3h-7.3l7.9,24.2h7.7L462.5,640.2z"/>
					<polygon class="st3" points="437.3,645.4 437.3,640.2 423,640.2 423,664.3 437.3,664.3 437.3,659 429.5,659 429.5,654.5 
						436.7,654.5 436.7,649.2 429.5,649.2 429.5,645.4 					"/>
					<path class="st3" d="M492.2,640.2h-8.5v24.2h5.8v-10.9c0-1.4-0.1-3.5-0.3-6.1h0.1l8.8,17h8.6v-24.2h-5.8v10.9
						c0,1.5,0.1,3.4,0.2,5.9H501L492.2,640.2z"/>
					<polygon class="st3" points="479.4,645.4 479.4,640.2 465.1,640.2 465.1,664.3 479.4,664.3 479.4,659 471.6,659 471.6,654.5 
						478.8,654.5 478.8,649.2 471.6,649.2 471.6,645.4 					"/>
					<path class="st3" d="M932.5,661.5c2-2.1,3-5.2,3-9.3c0-4.1-1-7.2-3-9.3c-2-2.1-4.9-3.2-8.8-3.2c-3.8,0-6.8,1.1-8.8,3.2
						c-2,2.1-3,5.2-3,9.2c0,4.1,1,7.2,3,9.3c2,2.1,4.9,3.2,8.7,3.2C927.5,664.7,930.5,663.6,932.5,661.5z M918.8,652.2
						c0-4.7,1.6-7.1,4.9-7.1c1.6,0,2.8,0.6,3.6,1.7c0.8,1.2,1.2,2.9,1.2,5.4c0,2.4-0.4,4.2-1.2,5.3c-0.8,1.1-2,1.7-3.7,1.7
						C920.4,659.2,918.8,656.9,918.8,652.2z"/>
					<path class="st3" d="M960.3,651.8c0-3.7-1.1-6.6-3.2-8.6c-2.1-2-5.1-3-9-3h-8.4v24.2h7.8c4,0,7.1-1.1,9.4-3.3
						C959.2,658.9,960.3,655.8,960.3,651.8z M952.2,657.3c-0.9,1.2-2.4,1.7-4.4,1.7h-1.5v-13.6h1.9c1.8,0,3.1,0.5,4,1.6
						c0.9,1.1,1.3,2.7,1.3,4.9C953.6,654.4,953.1,656.1,952.2,657.3z"/>
					<path class="st3" d="M985.2,651.8c0-3.7-1.1-6.6-3.2-8.6c-2.1-2-5.1-3-9-3h-8.4v24.2h7.8c4,0,7.1-1.1,9.4-3.3
						C984.1,658.9,985.2,655.8,985.2,651.8z M977,657.3c-0.9,1.2-2.4,1.7-4.4,1.7h-1.5v-13.6h1.9c1.8,0,3.1,0.5,4,1.6
						c0.9,1.1,1.3,2.7,1.3,4.9C978.4,654.4,978,656.1,977,657.3z"/>
					<path class="st3" d="M1052.7,664.3h6.6v-24.2h-5.9l-8.3,6.8l3.4,4.2l2.7-2.3c0.6-0.5,1.1-1.1,1.5-1.6c-0.1,1.3-0.1,2.7-0.1,4.3
						V664.3z"/>
					<path class="st3" d="M1074.4,658.2c-1.3,1-3.1,1.4-5.4,1.4c-0.9,0-1.9-0.1-2.8-0.3v5.2c0.8,0.1,1.9,0.2,3.4,0.2
						c4.5,0,7.8-1.1,9.8-3.2c2-2.1,3.1-5.5,3.1-10.3c0-3.6-0.8-6.4-2.4-8.4c-1.6-2-3.9-2.9-6.9-2.9c-2.7,0-4.7,0.8-6.3,2.3
						c-1.5,1.5-2.3,3.6-2.3,6.3c0,2.5,0.6,4.4,1.8,5.8c1.2,1.4,2.8,2.1,4.9,2.1c0.9,0,1.7-0.1,2.3-0.3c0.6-0.2,1.1-0.5,1.5-0.8
						c0.4-0.4,0.8-0.9,1.3-1.7h0.2C1076.3,655.7,1075.6,657.2,1074.4,658.2z M1075,650.6c-0.5,0.5-1.2,0.8-1.9,0.8
						c-0.8,0-1.4-0.3-1.8-0.8c-0.4-0.5-0.6-1.3-0.6-2.2c0-1.1,0.2-2,0.7-2.5c0.4-0.5,1-0.8,1.7-0.8c0.8,0,1.4,0.3,1.9,1.1
						c0.5,0.7,0.7,1.6,0.7,2.5C1075.8,649.4,1075.6,650.1,1075,650.6z"/>
					<polygon class="st3" points="1102.2,664.3 1102.2,650.2 1106.7,650.2 1106.7,646.2 1092.9,646.2 1092.9,650.2 1097.3,650.2 
						1097.3,664.3 					"/>
					<path class="st3" d="M1169.4,644.9c1.3,0,2.5,0.1,3.6,0.3v-5.1c-1.3-0.2-2.5-0.3-3.4-0.3c-2.8,0-5.1,0.5-7,1.5
						c-1.9,1-3.3,2.5-4.3,4.6c-1,2.1-1.4,4.8-1.4,8.2c0,3.3,0.8,5.9,2.4,7.8c1.6,1.9,3.8,2.8,6.7,2.8c2.7,0,4.8-0.8,6.3-2.3
						c1.5-1.5,2.3-3.6,2.3-6.3c0-2.5-0.6-4.4-1.8-5.8c-1.2-1.4-2.9-2.1-5-2.1c-2.2,0-3.8,0.9-4.8,2.8h-0.2c0.1-2.2,0.7-3.7,1.8-4.7
						C1165.6,645.4,1167.2,644.9,1169.4,644.9z M1164,654c0.5-0.5,1.1-0.8,1.8-0.8c1.5,0,2.3,1,2.3,2.9c0,1.1-0.2,2-0.6,2.5
						c-0.4,0.5-1,0.8-1.7,0.8c-0.7,0-1.3-0.3-1.8-1c-0.4-0.7-0.7-1.5-0.7-2.6C1163.3,655.2,1163.6,654.5,1164,654z"/>
					<path class="st3" d="M1123.5,662.2c1.5-1.6,2.2-3.9,2.2-7c0-3.1-0.7-5.4-2.2-7c-1.5-1.6-3.7-2.4-6.6-2.4
						c-2.9,0-5.1,0.8-6.6,2.4c-1.5,1.6-2.3,3.9-2.3,6.9c0,3.1,0.8,5.4,2.3,7c1.5,1.6,3.7,2.4,6.5,2.4
						C1119.8,664.6,1122,663.8,1123.5,662.2z M1113.2,655.2c0-3.5,1.2-5.3,3.7-5.3c1.2,0,2.1,0.4,2.7,1.3c0.6,0.9,0.9,2.2,0.9,4
						c0,1.8-0.3,3.1-0.9,4c-0.6,0.8-1.5,1.3-2.8,1.3C1114.4,660.5,1113.2,658.8,1113.2,655.2z"/>
					<path class="st3" d="M1146.4,658.9c-0.7,0.4-1.7,0.6-3.1,0.6c-0.9,0-1.9-0.1-3-0.4c-1.1-0.3-2.2-0.7-3.2-1.2v5.4
						c1.3,0.5,2.5,0.8,3.6,1c1.1,0.2,2.3,0.3,3.6,0.3c3.2,0,5.6-0.6,7.4-1.9c1.8-1.3,2.7-3.1,2.7-5.3c0-3.3-2-5.2-6.1-5.7v-0.1
						c1.7-0.5,3.1-1.3,4-2.3c0.9-1.1,1.4-2.4,1.4-3.9c0-1.7-0.7-3.1-2.1-4.1c-1.4-1-3.4-1.5-5.9-1.5c-1.7,0-3.3,0.2-4.6,0.6
						c-1.3,0.4-2.6,1-3.9,1.9l2.7,4.4c1.7-1,3.3-1.6,4.8-1.6c0.8,0,1.5,0.2,2,0.5c0.5,0.3,0.7,0.8,0.7,1.4c0,1.7-1.7,2.6-5,2.6h-1.5
						v4.9h1.5c1.2,0,2.2,0.1,3,0.3c0.8,0.2,1.3,0.5,1.7,0.8c0.3,0.4,0.5,0.9,0.5,1.5C1147.4,657.9,1147,658.5,1146.4,658.9z"/>
					<path class="st3" d="M1230.3,312.1h4.1V297h-3.7l-5.2,4.2l2.1,2.6l1.7-1.4c0.4-0.3,0.7-0.7,1-1c0,0.8-0.1,1.7-0.1,2.7V312.1z"
						/>
					<path class="st3" d="M1233.9,274.2c0.5-0.5,0.9-1,1.2-1.5c0.3-0.5,0.5-1,0.7-1.5c0.2-0.5,0.2-1,0.2-1.6c0-0.8-0.2-1.5-0.6-2.1
						c-0.4-0.6-1-1.1-1.8-1.5c-0.8-0.3-1.6-0.5-2.6-0.5c-0.8,0-1.5,0.1-2.1,0.2c-0.6,0.2-1.2,0.4-1.7,0.7c-0.5,0.3-1.2,0.8-2,1.5
						l2.2,2.6c0.6-0.5,1.2-0.9,1.6-1.2c0.5-0.3,1-0.4,1.4-0.4c0.5,0,0.8,0.1,1.1,0.3c0.3,0.2,0.4,0.5,0.4,0.9c0,0.3-0.1,0.6-0.2,0.9
						c-0.1,0.3-0.4,0.6-0.7,1c-0.3,0.4-1,1.2-2.1,2.3l-3.7,3.7v2.7h10.9v-3.4h-5.7v-0.1C1232.3,275.7,1233.4,274.7,1233.9,274.2z"/>
					<polygon class="st3" points="1222.8,287.2 1224.9,287.2 1224.9,294 1227.3,294 1227.3,287.2 1229.5,287.2 1229.5,285.2 
						1222.8,285.2 					"/>
					<path class="st3" d="M1238.7,289.6c0-1.5-0.4-2.6-1.1-3.4c-0.7-0.8-1.8-1.2-3.2-1.2c-1.4,0-2.5,0.4-3.2,1.2
						c-0.7,0.8-1.1,1.9-1.1,3.4c0,1.5,0.4,2.6,1.1,3.4c0.7,0.8,1.8,1.2,3.2,1.2c1.4,0,2.5-0.4,3.2-1.2
						C1238.3,292.2,1238.7,291.1,1238.7,289.6z M1235.8,291.6c-0.3,0.4-0.7,0.6-1.3,0.6c-1.2,0-1.8-0.9-1.8-2.6
						c0-1.7,0.6-2.6,1.8-2.6c0.6,0,1,0.2,1.3,0.6c0.3,0.4,0.4,1.1,0.4,1.9C1236.2,290.5,1236.1,291.1,1235.8,291.6z"/>
					<path class="st3" d="M1230.3,404.2h4.1v-15.1h-3.7l-5.2,4.2l2.1,2.6l1.7-1.4c0.4-0.3,0.7-0.7,1-1c0,0.8-0.1,1.7-0.1,2.7V404.2z
						"/>
					<path class="st3" d="M1233.9,366.3c0.5-0.5,0.9-1,1.2-1.5c0.3-0.5,0.5-1,0.7-1.5c0.2-0.5,0.2-1,0.2-1.6c0-0.8-0.2-1.5-0.6-2.1
						c-0.4-0.6-1-1.1-1.8-1.5c-0.8-0.3-1.6-0.5-2.6-0.5c-0.8,0-1.5,0.1-2.1,0.2c-0.6,0.2-1.2,0.4-1.7,0.7c-0.5,0.3-1.2,0.8-2,1.5
						l2.2,2.6c0.6-0.5,1.2-0.9,1.6-1.2c0.5-0.3,1-0.4,1.4-0.4c0.5,0,0.8,0.1,1.1,0.3c0.3,0.2,0.4,0.5,0.4,0.9c0,0.3-0.1,0.6-0.2,0.9
						c-0.1,0.3-0.4,0.6-0.7,1c-0.3,0.4-1,1.2-2.1,2.3l-3.7,3.7v2.7h10.9v-3.4h-5.7v-0.1C1232.3,367.8,1233.4,366.8,1233.9,366.3z"/>
					<polygon class="st3" points="1222.8,379.3 1224.9,379.3 1224.9,386.1 1227.3,386.1 1227.3,379.3 1229.5,379.3 1229.5,377.3 
						1222.8,377.3 					"/>
					<path class="st3" d="M1238.7,381.7c0-1.5-0.4-2.6-1.1-3.4c-0.7-0.8-1.8-1.1-3.2-1.1c-1.4,0-2.5,0.4-3.2,1.2
						c-0.7,0.8-1.1,1.9-1.1,3.4c0,1.5,0.4,2.6,1.1,3.4c0.7,0.8,1.8,1.2,3.2,1.2c1.4,0,2.5-0.4,3.2-1.2
						C1238.3,384.3,1238.7,383.2,1238.7,381.7z M1235.8,383.7c-0.3,0.4-0.7,0.6-1.3,0.6c-1.2,0-1.8-0.9-1.8-2.6
						c0-1.7,0.6-2.6,1.8-2.6c0.6,0,1,0.2,1.3,0.6c0.3,0.4,0.4,1.1,0.4,1.9C1236.2,382.6,1236.1,383.2,1235.8,383.7z"/>
					<path class="st3" d="M1233.9,458.4c0.5-0.5,0.9-1,1.2-1.5c0.3-0.5,0.5-1,0.7-1.5c0.2-0.5,0.2-1,0.2-1.6c0-0.8-0.2-1.5-0.6-2.1
						c-0.4-0.6-1-1.1-1.8-1.5c-0.8-0.3-1.6-0.5-2.6-0.5c-0.8,0-1.5,0.1-2.1,0.2c-0.6,0.2-1.2,0.4-1.7,0.7c-0.5,0.3-1.2,0.8-2,1.5
						l2.2,2.6c0.6-0.5,1.2-0.9,1.6-1.2c0.5-0.3,1-0.4,1.4-0.4c0.5,0,0.8,0.1,1.1,0.3c0.3,0.2,0.4,0.5,0.4,0.9c0,0.3-0.1,0.6-0.2,0.9
						c-0.1,0.3-0.4,0.6-0.7,1c-0.3,0.4-1,1.2-2.1,2.3l-3.7,3.7v2.7h10.9v-3.4h-5.7v-0.1C1232.3,459.9,1233.4,458.9,1233.9,458.4z"/>
					<path class="st3" d="M1230.3,496.3h4.1v-15.1h-3.7l-5.2,4.2l2.1,2.6l1.7-1.4c0.4-0.3,0.7-0.7,1-1c0,0.8-0.1,1.7-0.1,2.7V496.3z
						"/>
					<path class="st3" d="M1238.7,473.8c0-1.5-0.4-2.6-1.1-3.4c-0.7-0.8-1.8-1.1-3.2-1.1c-1.4,0-2.5,0.4-3.2,1.2
						c-0.7,0.8-1.1,1.9-1.1,3.4c0,1.5,0.4,2.6,1.1,3.4c0.7,0.8,1.8,1.2,3.2,1.2c1.4,0,2.5-0.4,3.2-1.2
						C1238.3,476.4,1238.7,475.3,1238.7,473.8z M1235.8,475.8c-0.3,0.4-0.7,0.6-1.3,0.6c-1.2,0-1.8-0.8-1.8-2.6
						c0-1.7,0.6-2.6,1.8-2.6c0.6,0,1,0.2,1.3,0.6c0.3,0.4,0.4,1.1,0.4,1.9C1236.2,474.7,1236.1,475.3,1235.8,475.8z"/>
					<polygon class="st3" points="1222.8,471.4 1224.9,471.4 1224.9,478.2 1227.3,478.2 1227.3,471.4 1229.5,471.4 1229.5,469.4 
						1222.8,469.4 					"/>
				</g>
				<g>
					<g>
						<circle class="st1" cx="263.3" cy="473" r="34.6"/>
						<circle class="st2" cx="263.3" cy="380.8" r="34.6"/>
						<circle class="st1" cx="263.3" cy="288.7" r="34.6"/>
					</g>
					<g>
						<circle class="st2" cx="343.9" cy="473" r="34.6"/>
						<circle class="st1" cx="343.9" cy="380.8" r="34.6"/>
						<circle class="st2" cx="343.9" cy="288.7" r="34.6"/>
					</g>
					<g>
						<circle class="st1" cx="424.5" cy="473" r="34.6"/>
						<circle class="st2" cx="424.5" cy="380.8" r="34.6"/>
						<circle class="st1" cx="424.5" cy="288.7" r="34.6"/>
					</g>
					<g>
						<circle class="st2" cx="505.1" cy="473" r="34.6"/>
						<circle class="st1" cx="505.1" cy="380.8" r="34.6"/>
						<circle class="st2" cx="505.1" cy="288.7" r="34.6"/>
					</g>
					<g>
						<circle class="st1" cx="585.8" cy="473" r="34.6"/>
						<circle class="st2" cx="585.8" cy="380.8" r="34.6"/>
						<circle class="st1" cx="585.8" cy="288.7" r="34.6"/>
					</g>
					<g>
						<circle class="st2" cx="666.4" cy="473" r="34.6"/>
						<circle class="st1" cx="666.4" cy="380.8" r="34.6"/>
						<circle class="st2" cx="666.4" cy="288.7" r="34.6"/>
					</g>
					<g>
						<circle class="st1" cx="747" cy="473" r="34.6"/>
						<circle class="st2" cx="747" cy="380.8" r="34.6"/>
						<circle class="st1" cx="747" cy="288.7" r="34.6"/>
					</g>
					<g>
						<circle class="st2" cx="827.6" cy="473" r="34.6"/>
						<circle class="st1" cx="827.6" cy="380.8" r="34.6"/>
						<circle class="st2" cx="827.6" cy="288.7" r="34.6"/>
					</g>
					<g>
						<circle class="st1" cx="908.3" cy="473" r="34.6"/>
						<circle class="st2" cx="908.3" cy="380.8" r="34.6"/>
						<circle class="st1" cx="908.3" cy="288.7" r="34.6"/>
					</g>
					<g>
						<circle class="st2" cx="988.9" cy="473" r="34.6"/>
						<circle class="st1" cx="988.9" cy="380.8" r="34.6"/>
						<circle class="st2" cx="988.9" cy="288.7" r="34.6"/>
					</g>
					<g>
						<circle class="st1" cx="1069.5" cy="473" r="34.6"/>
						<circle class="st2" cx="1069.5" cy="380.8" r="34.6"/>
						<circle class="st1" cx="1069.5" cy="288.7" r="34.6"/>
					</g>
					<g>
						<circle class="st2" cx="1150.1" cy="473" r="34.6"/>
						<circle class="st1" cx="1150.1" cy="380.8" r="34.6"/>
						<circle class="st2" cx="1150.1" cy="288.7" r="34.6"/>
					</g>
				</g>
			</g>
			<g>
				<path class="st4" d="M176,397.4c3.9,0,6.9-1.3,8.8-4c1.9-2.6,2.9-6.8,2.9-12.5c0-5.5-1-9.7-2.9-12.4c-2-2.8-4.9-4.2-8.7-4.2
					c-3.9,0-6.9,1.3-8.8,4c-1.9,2.7-2.9,6.9-2.9,12.6c0,5.5,1,9.6,2.9,12.3C169.3,396,172.2,397.4,176,397.4z M173.8,373.3
					c0.5-1.4,1.2-2.1,2.3-2.1c1.1,0,1.8,0.7,2.3,2.1c0.5,1.4,0.7,3.9,0.7,7.5c0,3.6-0.2,6-0.7,7.4c-0.4,1.4-1.2,2.1-2.3,2.1
					c-1.1,0-1.8-0.7-2.3-2.1c-0.5-1.4-0.7-3.9-0.7-7.5C173.1,377.2,173.3,374.7,173.8,373.3z"/>
				<path class="st4" d="M259.5,486.9h7.7v-28h-6.8l-9.6,7.8l3.9,4.8l3.2-2.6c0.7-0.6,1.3-1.2,1.8-1.8c-0.1,1.5-0.1,3.1-0.1,4.9
					V486.9z"/>
				<path class="st4" d="M269.1,382.9c1-1,1.7-1.9,2.3-2.8c0.6-0.9,1-1.8,1.3-2.8c0.3-0.9,0.4-1.9,0.4-3c0-1.5-0.4-2.8-1.2-4
					c-0.8-1.2-1.9-2.1-3.3-2.7c-1.4-0.6-3-1-4.8-1c-1.4,0-2.7,0.1-3.9,0.4c-1.1,0.3-2.2,0.7-3.2,1.3c-1,0.6-2.2,1.5-3.6,2.8l4.2,4.9
					c1.1-1,2.2-1.7,3.1-2.2c0.9-0.5,1.8-0.8,2.7-0.8c0.9,0,1.5,0.2,2,0.6c0.5,0.4,0.7,1,0.7,1.7c0,0.6-0.1,1.1-0.4,1.7
					c-0.2,0.5-0.7,1.2-1.3,1.9c-0.6,0.7-1.9,2.1-3.8,4.2l-6.8,6.9v5h20.3v-6.2H263v-0.2C266.1,385.8,268.1,383.9,269.1,382.9z"/>
				<path class="st4" d="M264.1,296.5c-0.8,0.5-2,0.7-3.6,0.7c-1.1,0-2.2-0.2-3.5-0.5c-1.3-0.3-2.5-0.8-3.7-1.4v6.3
					c1.5,0.6,2.9,1,4.2,1.2c1.3,0.2,2.7,0.3,4.2,0.3c3.7,0,6.5-0.7,8.6-2.2c2.1-1.5,3.1-3.5,3.1-6.1c0-3.8-2.3-6-7-6.6V288
					c2-0.6,3.5-1.5,4.6-2.7c1.1-1.2,1.6-2.7,1.6-4.5c0-2-0.8-3.6-2.5-4.7c-1.6-1.2-3.9-1.7-6.8-1.7c-2,0-3.8,0.2-5.3,0.6
					c-1.5,0.4-3.1,1.2-4.5,2.2l3.1,5c1.9-1.2,3.8-1.8,5.5-1.8c1,0,1.7,0.2,2.3,0.5c0.6,0.4,0.9,0.9,0.9,1.6c0,2-1.9,3-5.8,3h-1.8
					v5.7h1.7c1.4,0,2.6,0.1,3.4,0.3c0.9,0.2,1.5,0.5,1.9,0.9c0.4,0.4,0.6,1,0.6,1.8C265.3,295.3,264.9,296,264.1,296.5z"/>
				<path class="st4" d="M344.7,459L333,476v5.5h11.2v5.4h7.5v-5.4h3.1v-5.6h-3.1V459H344.7z M344.3,470.1c0,1-0.1,1.9-0.1,2.5v3.3
					h-4.6l3.1-4.6c0.5-0.9,1-1.8,1.5-2.8h0.2C344.3,468.6,344.3,469.1,344.3,470.1z"/>
				<path class="st4" d="M341.6,389.1c-1,0-2.2-0.2-3.6-0.5c-1.4-0.3-2.7-0.8-3.8-1.3v6.2c2.1,1,4.7,1.5,8,1.5
					c3.8,0,6.7-0.8,8.5-2.5c1.9-1.7,2.8-4.1,2.8-7.2c0-1.8-0.4-3.4-1.1-4.7c-0.7-1.4-1.7-2.4-3-3.2c-1.3-0.8-2.7-1.1-4.4-1.1
					c-0.4,0-0.7,0-1.2,0c-0.4,0-1.1,0.1-2.1,0.3l0.3-3.7h9.5v-6.3h-16l-1.1,14.8l2.8,1.4c1.4-0.4,2.7-0.7,3.8-0.7
					c1.6,0,2.7,0.3,3.5,0.9c0.8,0.6,1.2,1.4,1.2,2.5c0,1.2-0.4,2-1.1,2.6C344,388.8,343,389.1,341.6,389.1z"/>
				<path class="st4" d="M348.2,280.2c1.5,0,2.9,0.1,4.2,0.4v-5.9c-1.5-0.2-2.9-0.3-4-0.3c-3.2,0-5.9,0.6-8,1.7
					c-2.2,1.1-3.8,2.9-4.9,5.4c-1.1,2.4-1.7,5.6-1.7,9.5c0,3.8,0.9,6.9,2.8,9c1.9,2.1,4.4,3.2,7.8,3.2c3.1,0,5.5-0.9,7.3-2.7
					c1.7-1.8,2.6-4.2,2.6-7.3c0-2.9-0.7-5.1-2.1-6.7c-1.4-1.6-3.3-2.4-5.8-2.4c-2.5,0-4.4,1.1-5.5,3.3h-0.2c0.1-2.5,0.8-4.3,2-5.4
					C343.8,280.8,345.6,280.2,348.2,280.2z M342,290.8c0.5-0.6,1.2-0.9,2.1-0.9c1.8,0,2.6,1.1,2.6,3.4c0,1.3-0.3,2.3-0.8,2.9
					c-0.5,0.6-1.2,0.9-2,0.9c-0.9,0-1.5-0.4-2.1-1.2c-0.5-0.8-0.8-1.8-0.8-3C341.2,292.1,341.5,291.4,342,290.8z"/>
				<polygon class="st4" points="424.7,486.9 434.6,463.4 434.6,459 414.4,459 414.4,465.2 426.5,465.2 416.9,486.9 				"/>
				<path class="st4" d="M415.5,383.3c-0.8,1.1-1.2,2.5-1.2,4.1c0,2.5,0.9,4.4,2.6,5.8c1.7,1.3,4.3,2,7.6,2c3.2,0,5.7-0.7,7.5-2.1
					c1.8-1.4,2.7-3.3,2.7-5.8c0-1.4-0.4-2.6-1.3-3.8c-0.9-1.2-2.3-2.3-4.4-3.5c1.7-0.8,2.9-1.8,3.7-2.9c0.8-1.1,1.2-2.4,1.2-3.9
					c0-2.2-0.8-3.9-2.5-5.1c-1.6-1.2-3.9-1.8-6.9-1.8c-2.9,0-5.3,0.6-6.9,1.8c-1.7,1.2-2.5,2.9-2.5,5c0,1.4,0.3,2.6,1,3.8
					c0.7,1.1,1.8,2.2,3.2,3.2C417.5,381.2,416.2,382.2,415.5,383.3z M422.9,372.5c0.4-0.4,1-0.6,1.6-0.6c0.6,0,1.2,0.2,1.6,0.6
					c0.4,0.4,0.7,0.9,0.7,1.5c0,0.5-0.2,1-0.5,1.5c-0.3,0.4-0.9,0.9-1.9,1.4c-1.5-0.8-2.2-1.8-2.2-2.9
					C422.2,373.3,422.4,372.9,422.9,372.5z M422,385.2c0.5-0.6,1.3-1.2,2.4-1.8c1.3,0.8,2.1,1.4,2.6,2c0.5,0.6,0.7,1.2,0.7,1.8
					c0,1.6-1.1,2.5-3.4,2.5c-1,0-1.8-0.2-2.3-0.7c-0.6-0.5-0.8-1.1-0.8-1.9C421.2,386.5,421.5,385.9,422,385.2z"/>
				<path class="st4" d="M425.6,295.5c-1.5,1.1-3.6,1.7-6.3,1.7c-1.1,0-2.2-0.1-3.3-0.3v6c0.9,0.1,2.2,0.2,3.9,0.2
					c5.2,0,9-1.2,11.3-3.7c2.4-2.4,3.5-6.4,3.5-11.9c0-4.2-0.9-7.4-2.8-9.7c-1.9-2.3-4.5-3.4-7.9-3.4c-3.1,0-5.5,0.9-7.3,2.6
					c-1.8,1.8-2.7,4.2-2.7,7.3c0,2.8,0.7,5.1,2.1,6.7c1.4,1.6,3.3,2.4,5.7,2.4c1,0,1.9-0.1,2.6-0.3c0.7-0.2,1.3-0.5,1.8-0.9
					c0.5-0.4,1-1.1,1.5-2h0.2C427.9,292.6,427.1,294.4,425.6,295.5z M426.4,286.8c-0.6,0.6-1.3,0.9-2.2,0.9c-0.9,0-1.6-0.3-2.1-0.9
					c-0.4-0.6-0.7-1.5-0.7-2.5c0-1.3,0.3-2.3,0.8-2.9c0.5-0.6,1.2-0.9,2-0.9c0.9,0,1.6,0.4,2.2,1.2c0.6,0.8,0.8,1.8,0.8,2.9
					C427.3,285.4,427,286.2,426.4,286.8z"/>
				<path class="st4" d="M492.4,486.9h7.7v-28h-6.8l-9.6,7.8l3.9,4.8l3.2-2.6c0.7-0.6,1.3-1.2,1.8-1.8c-0.1,1.5-0.1,3.1-0.1,4.9
					V486.9z"/>
				<path class="st4" d="M516.5,487.3c3.4,0,6-1.2,7.6-3.5c1.7-2.3,2.5-5.9,2.5-10.9c0-4.8-0.9-8.4-2.6-10.8
					c-1.7-2.4-4.2-3.6-7.6-3.6c-3.4,0-6,1.2-7.6,3.5c-1.7,2.3-2.5,6-2.5,11c0,4.8,0.9,8.3,2.5,10.7
					C510.6,486.1,513.2,487.3,516.5,487.3z M514.5,466.4c0.4-1.2,1.1-1.8,2-1.8c0.9,0,1.6,0.6,2,1.9c0.4,1.2,0.6,3.4,0.6,6.5
					c0,3.1-0.2,5.2-0.6,6.5c-0.4,1.2-1.1,1.8-2,1.8c-0.9,0-1.6-0.6-2-1.8c-0.4-1.2-0.6-3.4-0.6-6.5
					C513.9,469.8,514.1,467.6,514.5,466.4z"/>
				<path class="st4" d="M494.2,394.8h7.7v-28H495l-9.6,7.8l3.9,4.8l3.2-2.6c0.7-0.6,1.3-1.2,1.8-1.8c-0.1,1.5-0.1,3.1-0.1,4.9
					V394.8z"/>
				<path class="st4" d="M517.2,394.8h7.7v-28H518l-9.6,7.8l3.9,4.8l3.2-2.6c0.7-0.6,1.3-1.2,1.8-1.8c-0.1,1.5-0.1,3.1-0.1,4.9
					V394.8z"/>
				<path class="st4" d="M522,290.8c1-1,1.7-1.9,2.3-2.8c0.6-0.9,1-1.8,1.3-2.8c0.3-0.9,0.4-1.9,0.4-3c0-1.5-0.4-2.8-1.2-4
					c-0.8-1.2-1.9-2.1-3.3-2.7c-1.4-0.6-3-1-4.8-1c-1.4,0-2.7,0.1-3.9,0.4c-1.1,0.3-2.2,0.7-3.2,1.3c-1,0.6-2.2,1.5-3.6,2.8l4.2,4.9
					c1.1-1,2.1-1.7,3-2.2c0.9-0.5,1.8-0.8,2.7-0.8c0.9,0,1.5,0.2,2,0.6c0.5,0.4,0.7,1,0.7,1.7c0,0.6-0.1,1.1-0.4,1.7
					c-0.2,0.5-0.7,1.2-1.3,1.9c-0.6,0.7-1.9,2.1-3.8,4.2l-6.8,6.9v5h20.3v-6.2H516v-0.2C519.1,293.7,521.1,291.8,522,290.8z"/>
				<path class="st4" d="M492.5,302.9h7.7v-28h-6.8l-9.6,7.8l3.9,4.8l3.2-2.6c0.7-0.6,1.3-1.2,1.8-1.8c-0.1,1.5-0.1,3.1-0.1,4.9
					V302.9z"/>
				<path class="st4" d="M573.1,486.9h7.7v-28H574l-9.6,7.8l3.9,4.8l3.2-2.6c0.7-0.6,1.3-1.2,1.8-1.8c-0.1,1.5-0.1,3.1-0.1,4.9
					V486.9z"/>
				<path class="st4" d="M598,480.7c-0.8,0.5-2,0.7-3.6,0.7c-1.1,0-2.2-0.2-3.5-0.5c-1.3-0.3-2.5-0.8-3.7-1.4v6.3
					c1.5,0.6,2.9,1,4.2,1.2c1.3,0.2,2.7,0.3,4.2,0.3c3.7,0,6.5-0.7,8.6-2.2c2.1-1.5,3.1-3.5,3.1-6.1c0-3.8-2.3-6-7-6.6v-0.1
					c2-0.6,3.5-1.5,4.6-2.7c1.1-1.2,1.6-2.7,1.6-4.5c0-2-0.8-3.6-2.5-4.7c-1.6-1.2-3.9-1.7-6.8-1.7c-2,0-3.8,0.2-5.3,0.6
					c-1.5,0.4-3.1,1.2-4.5,2.2l3.1,5c1.9-1.2,3.8-1.8,5.5-1.8c1,0,1.7,0.2,2.3,0.5c0.6,0.4,0.9,0.9,0.9,1.6c0,2-1.9,3-5.8,3h-1.8
					v5.7h1.7c1.4,0,2.6,0.1,3.4,0.3c0.9,0.2,1.5,0.5,1.9,0.9c0.4,0.4,0.6,1,0.6,1.8C599.1,479.5,598.7,480.2,598,480.7z"/>
				<path class="st4" d="M572.6,394.8h7.7v-28h-6.8l-9.6,7.8l3.9,4.8l3.2-2.6c0.7-0.6,1.3-1.2,1.8-1.8c-0.1,1.5-0.1,3.1-0.1,4.9
					V394.8z"/>
				<path class="st4" d="M597.6,366.9l-11.6,17v5.5h11.2v5.4h7.5v-5.4h3.1v-5.6h-3.1v-16.9H597.6z M597.1,378c0,1-0.1,1.9-0.1,2.5
					v3.3h-4.6l3.1-4.6c0.5-0.9,1-1.8,1.5-2.8h0.2C597.2,376.5,597.2,377,597.1,378z"/>
				<path class="st4" d="M573.2,302.5h7.7v-28h-6.8l-9.6,7.8l3.9,4.8l3.2-2.6c0.7-0.6,1.3-1.2,1.8-1.8c-0.1,1.5-0.1,3.1-0.1,4.9
					V302.5z"/>
				<path class="st4" d="M595,297c-1,0-2.2-0.2-3.6-0.5c-1.4-0.3-2.7-0.8-3.8-1.3v6.2c2.1,1,4.7,1.5,8,1.5c3.8,0,6.7-0.8,8.5-2.5
					c1.9-1.7,2.8-4.1,2.8-7.2c0-1.8-0.4-3.4-1.1-4.7c-0.7-1.4-1.7-2.4-3-3.2c-1.3-0.8-2.7-1.1-4.4-1.1c-0.4,0-0.7,0-1.2,0
					c-0.4,0-1.1,0.1-2.1,0.3l0.3-3.7h9.5v-6.3h-16l-1.1,14.8l2.8,1.4c1.4-0.4,2.7-0.7,3.8-0.7c1.6,0,2.7,0.3,3.5,0.9
					c0.8,0.6,1.1,1.4,1.1,2.5c0,1.2-0.4,2-1.1,2.6C597.5,296.7,596.4,297,595,297z"/>
				<path class="st4" d="M653.6,486.9h7.7v-28h-6.8l-9.6,7.8l3.9,4.8l3.2-2.6c0.7-0.6,1.3-1.2,1.8-1.8c-0.1,1.5-0.1,3.1-0.1,4.9
					V486.9z"/>
				<path class="st4" d="M682,464.4c1.5,0,2.9,0.1,4.2,0.4v-5.9c-1.5-0.2-2.9-0.3-4-0.3c-3.2,0-5.9,0.6-8,1.7
					c-2.2,1.1-3.8,2.9-4.9,5.4c-1.1,2.4-1.7,5.6-1.7,9.5c0,3.8,0.9,6.9,2.8,9c1.9,2.1,4.4,3.2,7.8,3.2c3.1,0,5.5-0.9,7.3-2.7
					c1.7-1.8,2.6-4.2,2.6-7.3c0-2.9-0.7-5.1-2.1-6.7c-1.4-1.6-3.3-2.4-5.8-2.4c-2.5,0-4.4,1.1-5.5,3.3h-0.2c0.1-2.5,0.8-4.3,2-5.4
					C677.6,465,679.5,464.4,682,464.4z M675.9,475c0.5-0.6,1.2-0.9,2.1-0.9c1.8,0,2.6,1.1,2.6,3.4c0,1.3-0.3,2.3-0.8,2.9
					c-0.5,0.6-1.2,0.9-2,0.9c-0.9,0-1.5-0.4-2.1-1.2c-0.5-0.8-0.8-1.8-0.8-3C675,476.3,675.3,475.6,675.9,475z"/>
				<path class="st4" d="M653.6,394.8h7.7v-28h-6.8l-9.6,7.8l3.9,4.8l3.2-2.6c0.7-0.6,1.3-1.2,1.8-1.8c-0.1,1.5-0.1,3.1-0.1,4.9
					V394.8z"/>
				<polygon class="st4" points="678.1,394.8 687.9,371.4 687.9,366.9 667.7,366.9 667.7,373.2 679.8,373.2 670.2,394.8 				"/>
				<path class="st4" d="M653.6,302.7h7.7v-28h-6.8l-9.6,7.8l3.9,4.8l3.2-2.6c0.7-0.6,1.3-1.2,1.8-1.8c-0.1,1.5-0.1,3.1-0.1,4.9
					V302.7z"/>
				<path class="st4" d="M668.7,291.2c-0.8,1.1-1.2,2.5-1.2,4.1c0,2.5,0.9,4.4,2.6,5.8c1.7,1.3,4.3,2,7.6,2c3.2,0,5.7-0.7,7.5-2.1
					c1.8-1.4,2.7-3.3,2.7-5.8c0-1.4-0.4-2.6-1.3-3.8c-0.9-1.2-2.3-2.3-4.4-3.5c1.7-0.8,2.9-1.8,3.7-2.9c0.8-1.1,1.2-2.4,1.2-3.9
					c0-2.2-0.8-3.9-2.5-5.1c-1.6-1.2-3.9-1.8-6.9-1.8c-2.9,0-5.3,0.6-6.9,1.8c-1.7,1.2-2.5,2.9-2.5,5c0,1.4,0.3,2.6,1,3.8
					c0.7,1.1,1.8,2.2,3.2,3.2C670.8,289.1,669.4,290.1,668.7,291.2z M676.1,280.4c0.4-0.4,1-0.6,1.6-0.6c0.6,0,1.2,0.2,1.6,0.6
					c0.4,0.4,0.7,0.9,0.7,1.5c0,0.5-0.2,1-0.5,1.5c-0.3,0.4-0.9,0.9-1.9,1.4c-1.5-0.8-2.2-1.8-2.2-2.9
					C675.4,281.2,675.6,280.7,676.1,280.4z M675.2,293.1c0.5-0.6,1.3-1.2,2.4-1.8c1.3,0.8,2.1,1.4,2.6,2c0.5,0.6,0.7,1.2,0.7,1.8
					c0,1.6-1.1,2.5-3.4,2.5c-1,0-1.8-0.2-2.3-0.7c-0.6-0.5-0.8-1.1-0.8-1.9C674.4,294.4,674.7,293.8,675.2,293.1z"/>
				<path class="st4" d="M734.2,486.9h7.7v-28h-6.8l-9.6,7.8l3.9,4.8l3.2-2.6c0.7-0.6,1.3-1.2,1.8-1.8c-0.1,1.5-0.1,3.1-0.1,4.9
					V486.9z"/>
				<path class="st4" d="M759.3,479.7c-1.5,1.1-3.6,1.7-6.3,1.7c-1.1,0-2.2-0.1-3.3-0.3v6c0.9,0.1,2.2,0.2,3.9,0.2
					c5.2,0,9-1.2,11.3-3.7c2.4-2.4,3.5-6.4,3.5-11.9c0-4.2-0.9-7.4-2.8-9.7c-1.9-2.3-4.5-3.4-7.9-3.4c-3.1,0-5.5,0.9-7.3,2.6
					c-1.8,1.8-2.7,4.2-2.7,7.3c0,2.8,0.7,5.1,2.1,6.7c1.4,1.6,3.3,2.4,5.7,2.4c1,0,1.9-0.1,2.6-0.3c0.7-0.2,1.3-0.5,1.8-0.9
					c0.5-0.4,1-1.1,1.5-2h0.2C761.6,476.8,760.8,478.6,759.3,479.7z M760.1,471c-0.6,0.6-1.3,0.9-2.2,0.9c-0.9,0-1.6-0.3-2.1-0.9
					c-0.4-0.6-0.7-1.5-0.7-2.5c0-1.3,0.3-2.3,0.8-2.9c0.5-0.6,1.2-0.9,2-0.9c0.9,0,1.6,0.4,2.2,1.2c0.6,0.8,0.9,1.8,0.9,2.9
					C761,469.7,760.7,470.4,760.1,471z"/>
				<path class="st4" d="M758.8,395.2c3.4,0,6-1.2,7.6-3.5c1.7-2.3,2.5-5.9,2.5-10.9c0-4.8-0.9-8.4-2.6-10.8
					c-1.7-2.4-4.2-3.6-7.6-3.6c-3.4,0-6,1.2-7.6,3.5c-1.7,2.3-2.5,6-2.5,11c0,4.8,0.8,8.3,2.6,10.7
					C752.9,394,755.4,395.2,758.8,395.2z M756.8,374.3c0.4-1.2,1.1-1.8,2-1.8c0.9,0,1.6,0.6,2,1.9c0.4,1.2,0.6,3.4,0.6,6.5
					c0,3.1-0.2,5.2-0.6,6.5c-0.4,1.2-1,1.8-2,1.8c-0.9,0-1.6-0.6-2-1.8c-0.4-1.2-0.6-3.4-0.6-6.5
					C756.2,377.7,756.4,375.5,756.8,374.3z"/>
				<path class="st4" d="M741.3,382.7c1-1,1.7-1.9,2.3-2.8c0.6-0.9,1-1.8,1.3-2.8c0.3-0.9,0.4-1.9,0.4-3c0-1.5-0.4-2.8-1.2-4
					c-0.8-1.2-1.9-2.1-3.3-2.7c-1.4-0.6-3-1-4.8-1c-1.4,0-2.7,0.1-3.9,0.4c-1.2,0.3-2.2,0.7-3.2,1.3c-1,0.6-2.2,1.5-3.6,2.8l4.2,4.9
					c1.1-1,2.1-1.7,3.1-2.2c0.9-0.5,1.8-0.8,2.7-0.8c0.9,0,1.5,0.2,2,0.6c0.5,0.4,0.7,1,0.7,1.7c0,0.6-0.1,1.2-0.4,1.7
					c-0.2,0.5-0.7,1.2-1.3,1.9c-0.6,0.7-1.9,2.1-3.8,4.2l-6.8,6.9v5h20.3v-6.2h-10.6v-0.2C738.3,385.6,740.3,383.7,741.3,382.7z"/>
				<path class="st4" d="M743,290.8c1-1,1.7-1.9,2.3-2.8c0.6-0.9,1-1.8,1.3-2.8c0.3-0.9,0.4-1.9,0.4-3c0-1.5-0.4-2.8-1.2-4
					c-0.8-1.2-1.9-2.1-3.3-2.7c-1.4-0.6-3-1-4.9-1c-1.4,0-2.7,0.1-3.9,0.4c-1.1,0.3-2.2,0.7-3.2,1.3c-1,0.6-2.2,1.5-3.6,2.8l4.2,4.9
					c1.1-1,2.2-1.7,3.1-2.2c0.9-0.5,1.8-0.8,2.7-0.8c0.9,0,1.5,0.2,2,0.6c0.5,0.4,0.7,1,0.7,1.7c0,0.6-0.1,1.1-0.4,1.7
					c-0.2,0.5-0.7,1.2-1.3,1.9c-0.6,0.7-1.9,2.1-3.8,4.2l-6.8,6.9v5h20.3v-6.2H737v-0.2C740.1,293.7,742.1,291.8,743,290.8z"/>
				<path class="st4" d="M759.4,302.9h7.7v-28h-6.8l-9.6,7.8l3.9,4.8l3.2-2.6c0.7-0.6,1.3-1.2,1.8-1.8c-0.1,1.5-0.1,3.1-0.1,4.9
					V302.9z"/>
				<path class="st4" d="M821.9,475c1-1,1.7-1.9,2.3-2.8c0.6-0.9,1-1.8,1.3-2.8c0.3-0.9,0.4-1.9,0.4-3c0-1.5-0.4-2.8-1.2-4
					c-0.8-1.2-1.9-2.1-3.3-2.7c-1.4-0.6-3-1-4.9-1c-1.4,0-2.7,0.1-3.9,0.4c-1.2,0.3-2.2,0.7-3.2,1.3c-1,0.6-2.2,1.5-3.6,2.8l4.2,4.9
					c1.1-1,2.1-1.7,3.1-2.2c0.9-0.5,1.8-0.8,2.7-0.8c0.9,0,1.5,0.2,2,0.6c0.5,0.4,0.7,1,0.7,1.7c0,0.6-0.1,1.1-0.4,1.7
					c-0.2,0.5-0.7,1.2-1.3,1.9c-0.6,0.7-1.9,2.1-3.8,4.2l-6.8,6.9v5h20.3v-6.2h-10.6v-0.2C819,477.9,821,476,821.9,475z"/>
				<path class="st4" d="M844.9,475c1-1,1.7-1.9,2.3-2.8c0.6-0.9,1-1.8,1.3-2.8c0.3-0.9,0.4-1.9,0.4-3c0-1.5-0.4-2.8-1.2-4
					c-0.8-1.2-1.9-2.1-3.3-2.7c-1.4-0.6-3-1-4.9-1c-1.4,0-2.7,0.1-3.9,0.4c-1.2,0.3-2.2,0.7-3.2,1.3c-1,0.6-2.2,1.5-3.6,2.8l4.2,4.9
					c1.1-1,2.1-1.7,3.1-2.2c0.9-0.5,1.8-0.8,2.7-0.8c0.9,0,1.5,0.2,2,0.6c0.5,0.4,0.7,1,0.7,1.7c0,0.6-0.1,1.1-0.4,1.7
					c-0.2,0.5-0.7,1.2-1.3,1.9c-0.6,0.7-1.9,2.1-3.8,4.2l-6.8,6.9v5h20.3v-6.2h-10.6v-0.2C841.9,477.9,844,476,844.9,475z"/>
				<path class="st4" d="M822,382.7c1-1,1.7-1.9,2.3-2.8c0.6-0.9,1-1.8,1.3-2.8c0.3-0.9,0.4-1.9,0.4-3c0-1.5-0.4-2.8-1.2-4
					c-0.8-1.2-1.9-2.1-3.3-2.7c-1.4-0.6-3-1-4.8-1c-1.4,0-2.7,0.1-3.9,0.4c-1.1,0.3-2.2,0.7-3.2,1.3c-1,0.6-2.2,1.5-3.6,2.8l4.2,4.9
					c1.1-1,2.2-1.7,3.1-2.2c0.9-0.5,1.8-0.8,2.7-0.8c0.9,0,1.5,0.2,2,0.6c0.5,0.4,0.7,1,0.7,1.7c0,0.6-0.1,1.2-0.3,1.7
					c-0.2,0.5-0.7,1.2-1.3,1.9c-0.6,0.7-1.9,2.1-3.8,4.2l-6.8,6.9v5h20.3v-6.2h-10.6v-0.2C819,385.6,821.1,383.7,822,382.7z"/>
				<path class="st4" d="M840.2,388.6c-0.8,0.5-2,0.7-3.6,0.7c-1.1,0-2.2-0.2-3.5-0.5c-1.3-0.3-2.5-0.8-3.7-1.4v6.3
					c1.5,0.6,2.9,1,4.2,1.2c1.3,0.2,2.7,0.3,4.2,0.3c3.7,0,6.5-0.7,8.6-2.2c2.1-1.5,3.1-3.5,3.1-6.1c0-3.8-2.3-6-7-6.6v-0.1
					c2-0.6,3.5-1.5,4.6-2.7c1.1-1.2,1.6-2.7,1.6-4.5c0-2-0.8-3.6-2.5-4.7c-1.6-1.2-3.9-1.7-6.8-1.7c-2,0-3.8,0.2-5.3,0.6
					c-1.5,0.4-3.1,1.2-4.5,2.2l3.1,5c1.9-1.2,3.8-1.8,5.5-1.8c1,0,1.7,0.2,2.3,0.5c0.6,0.4,0.9,0.9,0.9,1.6c0,2-1.9,3-5.8,3h-1.8
					v5.7h1.7c1.4,0,2.6,0.1,3.4,0.3c0.9,0.2,1.5,0.5,1.9,0.9c0.4,0.4,0.6,1,0.6,1.8C841.4,387.4,841,388.1,840.2,388.6z"/>
				<path class="st4" d="M821.5,290.8c1-1,1.7-1.9,2.3-2.8c0.6-0.9,1-1.8,1.3-2.8c0.3-0.9,0.4-1.9,0.4-3c0-1.5-0.4-2.8-1.2-4
					c-0.8-1.2-1.9-2.1-3.3-2.7c-1.4-0.6-3-1-4.8-1c-1.4,0-2.7,0.1-3.9,0.4c-1.2,0.3-2.2,0.7-3.2,1.3c-1,0.6-2.2,1.5-3.6,2.8l4.2,4.9
					c1.1-1,2.1-1.7,3.1-2.2c0.9-0.5,1.8-0.8,2.7-0.8c0.9,0,1.5,0.2,2,0.6c0.5,0.4,0.7,1,0.7,1.7c0,0.6-0.1,1.1-0.4,1.7
					c-0.2,0.5-0.7,1.2-1.3,1.9c-0.6,0.7-1.9,2.1-3.8,4.2l-6.8,6.9v5H826v-6.2h-10.6v-0.2C818.5,293.7,820.5,291.8,821.5,290.8z"/>
				<path class="st4" d="M839.8,274.9l-11.6,17v5.5h11.2v5.4h7.5v-5.4h3.1v-5.6h-3.1v-16.9H839.8z M839.4,286.1c0,1-0.1,1.9-0.1,2.5
					v3.3h-4.6l3.1-4.6c0.5-0.9,1-1.8,1.5-2.8h0.2C839.5,284.6,839.4,285.1,839.4,286.1z"/>
				<path class="st4" d="M902.7,474.9c1-1,1.7-1.9,2.3-2.8c0.6-0.9,1-1.8,1.3-2.8c0.3-0.9,0.4-1.9,0.4-3c0-1.5-0.4-2.8-1.2-4
					c-0.8-1.2-1.9-2.1-3.3-2.7c-1.4-0.6-3-1-4.8-1c-1.4,0-2.7,0.1-3.9,0.4c-1.2,0.3-2.2,0.7-3.2,1.3c-1,0.6-2.2,1.5-3.6,2.8l4.2,4.9
					c1.1-1,2.1-1.7,3.1-2.2c0.9-0.5,1.8-0.8,2.7-0.8c0.9,0,1.5,0.2,2,0.6c0.5,0.4,0.7,1,0.7,1.7c0,0.6-0.1,1.1-0.4,1.7
					c-0.2,0.5-0.7,1.2-1.3,1.9c-0.6,0.7-1.9,2.1-3.8,4.2l-6.8,6.9v5h20.3v-6.2h-10.6v-0.2C899.7,477.7,901.8,475.9,902.7,474.9z"/>
				<path class="st4" d="M917.9,481.4c-1,0-2.2-0.2-3.6-0.5c-1.4-0.3-2.7-0.8-3.8-1.3v6.2c2.1,1,4.7,1.5,8,1.5
					c3.8,0,6.7-0.8,8.5-2.5c1.9-1.7,2.8-4.1,2.8-7.2c0-1.8-0.4-3.4-1.1-4.7c-0.7-1.4-1.7-2.4-3-3.2c-1.3-0.8-2.7-1.1-4.4-1.1
					c-0.4,0-0.7,0-1.2,0c-0.4,0-1.1,0.1-2.1,0.3l0.3-3.7h9.5V459h-16l-1,14.8l2.8,1.4c1.4-0.4,2.7-0.7,3.8-0.7
					c1.6,0,2.7,0.3,3.5,0.9c0.8,0.6,1.2,1.4,1.2,2.5c0,1.2-0.4,2-1.1,2.6C920.4,481.1,919.3,481.4,917.9,481.4z"/>
				<path class="st4" d="M902.4,382.7c1-1,1.7-1.9,2.3-2.8c0.6-0.9,1-1.8,1.3-2.8c0.3-0.9,0.4-1.9,0.4-3c0-1.5-0.4-2.8-1.2-4
					c-0.8-1.2-1.9-2.1-3.3-2.7c-1.4-0.6-3-1-4.9-1c-1.4,0-2.7,0.1-3.9,0.4c-1.1,0.3-2.2,0.7-3.2,1.3c-1,0.6-2.2,1.5-3.6,2.8l4.2,4.9
					c1.1-1,2.1-1.7,3-2.2c0.9-0.5,1.8-0.8,2.7-0.8c0.9,0,1.5,0.2,2,0.6c0.5,0.4,0.7,1,0.7,1.7c0,0.6-0.1,1.2-0.4,1.7
					c-0.2,0.5-0.7,1.2-1.3,1.9c-0.6,0.7-1.9,2.1-3.8,4.2l-6.8,6.9v5h20.3v-6.2h-10.6v-0.2C899.5,385.6,901.5,383.7,902.4,382.7z"/>
				<path class="st4" d="M924.3,372.3c1.5,0,2.9,0.1,4.2,0.4v-5.9c-1.5-0.2-2.9-0.3-4-0.3c-3.2,0-5.9,0.6-8,1.7
					c-2.2,1.1-3.8,2.9-4.9,5.4c-1.1,2.4-1.7,5.6-1.7,9.5c0,3.8,0.9,6.9,2.8,9c1.9,2.1,4.4,3.2,7.8,3.2c3.1,0,5.5-0.9,7.3-2.7
					c1.7-1.8,2.6-4.2,2.6-7.3c0-2.9-0.7-5.1-2.1-6.7c-1.4-1.6-3.3-2.4-5.8-2.4c-2.5,0-4.4,1.1-5.5,3.3h-0.2c0.1-2.5,0.8-4.3,2-5.4
					C919.8,372.9,921.7,372.3,924.3,372.3z M918.1,382.9c0.5-0.6,1.2-0.9,2.1-0.9c1.8,0,2.6,1.1,2.6,3.4c0,1.3-0.3,2.3-0.8,2.9
					c-0.5,0.6-1.2,0.9-2,0.9c-0.9,0-1.5-0.4-2.1-1.2c-0.5-0.8-0.8-1.8-0.8-3C917.3,384.2,917.6,383.5,918.1,382.9z"/>
				<path class="st4" d="M902.5,290.8c1-1,1.7-1.9,2.3-2.8c0.6-0.9,1-1.8,1.3-2.8c0.3-0.9,0.4-1.9,0.4-3c0-1.5-0.4-2.8-1.2-4
					c-0.8-1.2-1.9-2.1-3.3-2.7c-1.4-0.6-3-1-4.8-1c-1.4,0-2.7,0.1-3.9,0.4c-1.1,0.3-2.2,0.7-3.2,1.3c-1,0.6-2.2,1.5-3.6,2.8l4.2,4.9
					c1.1-1,2.2-1.7,3.1-2.2c0.9-0.5,1.8-0.8,2.7-0.8c0.9,0,1.5,0.2,2,0.6c0.5,0.4,0.7,1,0.7,1.7c0,0.6-0.1,1.1-0.4,1.7
					c-0.2,0.5-0.7,1.2-1.3,1.9c-0.6,0.7-1.9,2.1-3.8,4.2l-6.8,6.9v5H907v-6.2h-10.6v-0.2C899.5,293.7,901.5,291.8,902.5,290.8z"/>
				<polygon class="st4" points="920.3,302.9 930.2,279.5 930.2,275 910,275 910,281.3 922.1,281.3 912.5,302.9 				"/>
				<path class="st4" d="M983.1,474.9c1-1,1.7-1.9,2.3-2.8c0.6-0.9,1-1.8,1.3-2.8c0.3-0.9,0.4-1.9,0.4-3c0-1.5-0.4-2.8-1.2-4
					c-0.8-1.2-1.9-2.1-3.3-2.7c-1.4-0.6-3-1-4.8-1c-1.4,0-2.7,0.1-3.9,0.4c-1.2,0.3-2.2,0.7-3.2,1.3c-1,0.6-2.2,1.5-3.6,2.8l4.2,4.9
					c1.1-1,2.1-1.7,3.1-2.2c0.9-0.5,1.8-0.8,2.7-0.8c0.9,0,1.5,0.2,2,0.6c0.5,0.4,0.7,1,0.7,1.7c0,0.6-0.1,1.1-0.4,1.7
					c-0.2,0.5-0.7,1.2-1.3,1.9c-0.6,0.7-1.9,2.1-3.8,4.2l-6.8,6.9v5h20.3v-6.2H977v-0.2C980.1,477.7,982.1,475.9,983.1,474.9z"/>
				<path class="st4" d="M991.5,475.4c-0.8,1.1-1.2,2.5-1.2,4.1c0,2.5,0.9,4.4,2.6,5.8c1.7,1.3,4.3,2,7.6,2c3.2,0,5.7-0.7,7.5-2.1
					c1.8-1.4,2.7-3.3,2.7-5.8c0-1.4-0.4-2.6-1.3-3.8c-0.8-1.2-2.3-2.3-4.4-3.5c1.7-0.8,2.9-1.8,3.7-2.9c0.8-1.1,1.2-2.4,1.2-3.9
					c0-2.2-0.8-3.9-2.5-5.1c-1.6-1.2-3.9-1.8-6.9-1.8c-2.9,0-5.3,0.6-6.9,1.8c-1.7,1.2-2.5,2.9-2.5,5c0,1.4,0.3,2.6,1,3.8
					c0.7,1.1,1.8,2.2,3.2,3.2C993.6,473.3,992.3,474.3,991.5,475.4z M999,464.6c0.4-0.4,1-0.6,1.6-0.6c0.6,0,1.2,0.2,1.6,0.6
					c0.4,0.4,0.7,0.9,0.7,1.5c0,0.5-0.2,1-0.5,1.5c-0.3,0.4-0.9,0.9-1.9,1.4c-1.5-0.8-2.2-1.8-2.2-2.9
					C998.3,465.4,998.5,465,999,464.6z M998,477.3c0.5-0.6,1.3-1.2,2.4-1.8c1.3,0.8,2.1,1.4,2.6,2c0.5,0.6,0.7,1.2,0.7,1.8
					c0,1.6-1.1,2.5-3.4,2.5c-1,0-1.8-0.2-2.3-0.7c-0.6-0.5-0.8-1.1-0.8-1.9C997.3,478.6,997.5,478,998,477.3z"/>
				<path class="st4" d="M983.1,382.7c1-1,1.7-1.9,2.3-2.8c0.6-0.9,1-1.8,1.3-2.8c0.3-0.9,0.4-1.9,0.4-3c0-1.5-0.4-2.8-1.2-4
					c-0.8-1.2-1.9-2.1-3.3-2.7c-1.4-0.6-3-1-4.9-1c-1.4,0-2.7,0.1-3.9,0.4c-1.1,0.3-2.2,0.7-3.2,1.3c-1,0.6-2.2,1.5-3.6,2.8l4.2,4.9
					c1.1-1,2.1-1.7,3-2.2c0.9-0.5,1.8-0.8,2.7-0.8c0.9,0,1.5,0.2,2,0.6c0.5,0.4,0.7,1,0.7,1.7c0,0.6-0.1,1.2-0.4,1.7
					c-0.2,0.5-0.7,1.2-1.3,1.9c-0.6,0.7-1.9,2.1-3.8,4.2l-6.8,6.9v5h20.3v-6.2H977v-0.2C980.1,385.6,982.1,383.7,983.1,382.7z"/>
				<path class="st4" d="M1001.5,387.7c-1.5,1.1-3.6,1.7-6.3,1.7c-1.1,0-2.2-0.1-3.3-0.3v6c0.9,0.1,2.2,0.2,3.9,0.2
					c5.2,0,9-1.2,11.3-3.7c2.4-2.4,3.5-6.4,3.5-11.9c0-4.2-0.9-7.4-2.8-9.7c-1.9-2.3-4.5-3.4-7.9-3.4c-3.1,0-5.5,0.9-7.3,2.6
					c-1.8,1.8-2.7,4.2-2.7,7.3c0,2.8,0.7,5.1,2.1,6.7c1.4,1.6,3.3,2.4,5.7,2.4c1,0,1.9-0.1,2.6-0.3c0.7-0.2,1.3-0.5,1.8-0.9
					c0.5-0.4,1-1.1,1.5-2h0.2C1003.8,384.8,1003,386.6,1001.5,387.7z M1002.3,378.9c-0.6,0.6-1.3,0.9-2.2,0.9
					c-0.9,0-1.6-0.3-2.1-0.9c-0.4-0.6-0.7-1.5-0.7-2.5c0-1.3,0.3-2.3,0.8-2.9c0.5-0.6,1.2-0.9,2-0.9c0.9,0,1.6,0.4,2.2,1.2
					c0.6,0.8,0.9,1.8,0.9,2.9C1003.2,377.6,1002.9,378.3,1002.3,378.9z"/>
				<path class="st4" d="M978.1,296.5c-0.8,0.5-2,0.7-3.6,0.7c-1.1,0-2.2-0.2-3.5-0.5c-1.3-0.3-2.5-0.8-3.7-1.4v6.3
					c1.5,0.6,2.9,1,4.2,1.2c1.3,0.2,2.7,0.3,4.2,0.3c3.7,0,6.5-0.7,8.6-2.2c2.1-1.5,3.1-3.5,3.1-6.1c0-3.8-2.3-6-7-6.6V288
					c2-0.6,3.5-1.5,4.6-2.7c1.1-1.2,1.6-2.7,1.6-4.5c0-2-0.8-3.6-2.5-4.7c-1.6-1.2-3.9-1.7-6.8-1.7c-2,0-3.8,0.2-5.3,0.6
					c-1.5,0.4-3.1,1.2-4.5,2.2l3.1,5c1.9-1.2,3.8-1.8,5.5-1.8c1,0,1.7,0.2,2.3,0.5c0.6,0.4,0.9,0.9,0.9,1.6c0,2-1.9,3-5.8,3h-1.8
					v5.7h1.7c1.4,0,2.6,0.1,3.4,0.3c0.9,0.2,1.5,0.5,1.9,0.9c0.4,0.4,0.6,1,0.6,1.8C979.3,295.3,978.9,296,978.1,296.5z"/>
				<path class="st4" d="M1000.4,303.1c3.4,0,6-1.2,7.6-3.5c1.7-2.3,2.5-5.9,2.5-10.9c0-4.8-0.9-8.4-2.6-10.8
					c-1.7-2.4-4.2-3.6-7.6-3.6c-3.4,0-6,1.2-7.6,3.5c-1.7,2.3-2.5,6-2.5,10.9c0,4.8,0.8,8.3,2.5,10.7
					C994.5,301.9,997,303.1,1000.4,303.1z M998.4,282.2c0.4-1.2,1.1-1.8,2-1.8c0.9,0,1.6,0.6,2,1.9c0.4,1.2,0.6,3.4,0.6,6.5
					c0,3.1-0.2,5.2-0.6,6.5c-0.4,1.2-1,1.8-2,1.8c-0.9,0-1.6-0.6-2-1.8c-0.4-1.2-0.6-3.4-0.6-6.5C997.8,285.6,998,283.4,998.4,282.2
					z"/>
				<path class="st4" d="M1081.7,486.9h7.7v-28h-6.8l-9.6,7.8l3.9,4.8l3.2-2.6c0.7-0.6,1.3-1.2,1.8-1.8c-0.1,1.5-0.1,3.1-0.1,4.9
					V486.9z"/>
				<path class="st4" d="M1060.6,480.7c-0.8,0.5-2,0.7-3.6,0.7c-1.1,0-2.3-0.2-3.5-0.5c-1.3-0.3-2.5-0.8-3.7-1.4v6.3
					c1.5,0.6,2.9,1,4.2,1.2c1.3,0.2,2.7,0.3,4.2,0.3c3.7,0,6.5-0.7,8.6-2.2c2.1-1.5,3.1-3.5,3.1-6.1c0-3.8-2.3-6-7-6.6v-0.1
					c2-0.6,3.5-1.5,4.6-2.7c1.1-1.2,1.6-2.7,1.6-4.5c0-2-0.8-3.6-2.5-4.7c-1.6-1.2-3.9-1.7-6.8-1.7c-2,0-3.8,0.2-5.3,0.6
					c-1.5,0.4-3.1,1.2-4.5,2.2l3.1,5c1.9-1.2,3.8-1.8,5.5-1.8c1,0,1.7,0.2,2.3,0.5c0.6,0.4,0.8,0.9,0.8,1.6c0,2-1.9,3-5.8,3h-1.8
					v5.7h1.7c1.4,0,2.6,0.1,3.4,0.3c0.9,0.2,1.5,0.5,1.9,0.9c0.4,0.4,0.6,1,0.6,1.8C1061.7,479.5,1061.3,480.2,1060.6,480.7z"/>
				<path class="st4" d="M1058.8,388.6c-0.8,0.5-2,0.7-3.6,0.7c-1.1,0-2.3-0.2-3.5-0.5c-1.3-0.3-2.5-0.8-3.7-1.4v6.3
					c1.5,0.6,2.9,1,4.2,1.2c1.3,0.2,2.7,0.3,4.2,0.3c3.7,0,6.5-0.7,8.6-2.2c2.1-1.5,3.1-3.5,3.1-6.1c0-3.8-2.3-6-7-6.6v-0.1
					c2-0.6,3.5-1.5,4.6-2.7c1.1-1.2,1.6-2.7,1.6-4.5c0-2-0.8-3.6-2.5-4.7c-1.6-1.2-3.9-1.7-6.8-1.7c-2,0-3.8,0.2-5.3,0.6
					c-1.5,0.4-3.1,1.2-4.5,2.2l3.1,5c1.9-1.2,3.8-1.8,5.5-1.8c1,0,1.7,0.2,2.3,0.5c0.6,0.4,0.9,0.9,0.9,1.6c0,2-1.9,3-5.8,3h-1.8
					v5.7h1.7c1.4,0,2.6,0.1,3.4,0.3c0.9,0.2,1.5,0.5,1.9,0.9c0.4,0.4,0.6,1,0.6,1.8C1060,387.4,1059.6,388.1,1058.8,388.6z"/>
				<path class="st4" d="M1086.6,382.7c1-1,1.7-1.9,2.3-2.8c0.6-0.9,1-1.8,1.3-2.8c0.3-0.9,0.4-1.9,0.4-3c0-1.5-0.4-2.8-1.2-4
					c-0.8-1.2-1.9-2.1-3.3-2.7c-1.4-0.6-3-1-4.8-1c-1.4,0-2.7,0.1-3.9,0.4c-1.2,0.3-2.2,0.7-3.2,1.3c-1,0.6-2.2,1.5-3.6,2.8l4.2,4.9
					c1.1-1,2.1-1.7,3.1-2.2c0.9-0.5,1.8-0.8,2.7-0.8c0.9,0,1.5,0.2,2,0.6c0.5,0.4,0.7,1,0.7,1.7c0,0.6-0.1,1.2-0.4,1.7
					c-0.2,0.5-0.7,1.2-1.3,1.9c-0.6,0.7-1.9,2.1-3.8,4.2l-6.8,6.9v5h20.3v-6.2h-10.6v-0.2C1083.6,385.6,1085.6,383.7,1086.6,382.7z"
					/>
				<path class="st4" d="M1081.9,296.5c-0.8,0.5-2,0.7-3.6,0.7c-1.1,0-2.2-0.2-3.5-0.5c-1.3-0.3-2.5-0.8-3.7-1.4v6.3
					c1.5,0.6,2.9,1,4.2,1.2c1.3,0.2,2.7,0.3,4.2,0.3c3.7,0,6.5-0.7,8.6-2.2c2.1-1.5,3.1-3.5,3.1-6.1c0-3.8-2.3-6-7-6.6V288
					c2-0.6,3.5-1.5,4.6-2.7c1.1-1.2,1.6-2.7,1.6-4.5c0-2-0.8-3.6-2.5-4.7c-1.6-1.2-3.9-1.7-6.8-1.7c-2,0-3.8,0.2-5.3,0.6
					c-1.6,0.4-3.1,1.2-4.5,2.2l3.1,5c1.9-1.2,3.8-1.8,5.6-1.8c1,0,1.7,0.2,2.3,0.5c0.6,0.4,0.8,0.9,0.8,1.6c0,2-1.9,3-5.8,3h-1.8
					v5.7h1.7c1.4,0,2.6,0.1,3.4,0.3c0.9,0.2,1.5,0.5,1.9,0.9c0.4,0.4,0.6,1,0.6,1.8C1083,295.3,1082.6,296,1081.9,296.5z"/>
				<path class="st4" d="M1058.9,296.5c-0.8,0.5-2,0.7-3.6,0.7c-1.1,0-2.2-0.2-3.5-0.5c-1.3-0.3-2.5-0.8-3.7-1.4v6.3
					c1.5,0.6,2.9,1,4.2,1.2c1.3,0.2,2.7,0.3,4.2,0.3c3.7,0,6.5-0.7,8.6-2.2c2.1-1.5,3.1-3.5,3.1-6.1c0-3.8-2.3-6-7-6.6V288
					c2-0.6,3.5-1.5,4.6-2.7c1.1-1.2,1.6-2.7,1.6-4.5c0-2-0.8-3.6-2.5-4.7c-1.6-1.2-3.9-1.7-6.8-1.7c-2,0-3.8,0.2-5.3,0.6
					c-1.6,0.4-3.1,1.2-4.5,2.2l3.1,5c1.9-1.2,3.8-1.8,5.6-1.8c1,0,1.7,0.2,2.3,0.5c0.6,0.4,0.9,0.9,0.9,1.6c0,2-1.9,3-5.8,3h-1.8
					v5.7h1.7c1.4,0,2.6,0.1,3.4,0.3c0.9,0.2,1.5,0.5,1.9,0.9c0.4,0.4,0.6,1,0.6,1.8C1060,295.3,1059.6,296,1058.9,296.5z"/>
				<path class="st4" d="M1162.1,459l-11.6,17v5.5h11.2v5.4h7.5v-5.4h3.1v-5.6h-3.1V459H1162.1z M1161.7,470.1c0,1-0.1,1.9-0.1,2.5
					v3.3h-4.6l3.1-4.6c0.5-0.9,1-1.8,1.5-2.8h0.2C1161.7,468.6,1161.7,469.1,1161.7,470.1z"/>
				<path class="st4" d="M1139,480.7c-0.8,0.5-2,0.7-3.6,0.7c-1.1,0-2.2-0.2-3.5-0.5c-1.3-0.3-2.5-0.8-3.7-1.4v6.3
					c1.5,0.6,2.9,1,4.2,1.2c1.3,0.2,2.7,0.3,4.2,0.3c3.7,0,6.5-0.7,8.6-2.2c2.1-1.5,3.1-3.5,3.1-6.1c0-3.8-2.3-6-7-6.6v-0.1
					c2-0.6,3.5-1.5,4.6-2.7c1.1-1.2,1.6-2.7,1.6-4.5c0-2-0.8-3.6-2.5-4.7c-1.6-1.2-3.9-1.7-6.8-1.7c-2,0-3.8,0.2-5.3,0.6
					c-1.6,0.4-3.1,1.2-4.5,2.2l3.1,5c1.9-1.2,3.8-1.8,5.5-1.8c1,0,1.7,0.2,2.3,0.5c0.6,0.4,0.9,0.9,0.9,1.6c0,2-1.9,3-5.8,3h-1.8
					v5.7h1.7c1.4,0,2.6,0.1,3.4,0.3c0.9,0.2,1.5,0.5,1.9,0.9c0.4,0.4,0.6,1,0.6,1.8C1140.1,479.5,1139.8,480.2,1139,480.7z"/>
				<path class="st4" d="M1139.6,388.6c-0.8,0.5-2,0.7-3.6,0.7c-1.1,0-2.3-0.2-3.5-0.5c-1.3-0.3-2.5-0.8-3.7-1.4v6.3
					c1.5,0.6,2.9,1,4.2,1.2c1.3,0.2,2.7,0.3,4.2,0.3c3.7,0,6.5-0.7,8.6-2.2c2.1-1.5,3.1-3.5,3.1-6.1c0-3.8-2.3-6-7-6.6v-0.1
					c2-0.6,3.5-1.5,4.6-2.7c1.1-1.2,1.6-2.7,1.6-4.5c0-2-0.8-3.6-2.5-4.7c-1.6-1.2-3.9-1.7-6.8-1.7c-2,0-3.8,0.2-5.3,0.6
					c-1.5,0.4-3.1,1.2-4.5,2.2l3.1,5c1.9-1.2,3.8-1.8,5.5-1.8c1,0,1.7,0.2,2.3,0.5c0.6,0.4,0.9,0.9,0.9,1.6c0,2-1.9,3-5.8,3h-1.8
					v5.7h1.7c1.4,0,2.6,0.1,3.4,0.3c0.9,0.2,1.5,0.5,1.9,0.9c0.4,0.4,0.6,1,0.6,1.8C1140.7,387.4,1140.4,388.1,1139.6,388.6z"/>
				<path class="st4" d="M1159.5,389.3c-1,0-2.2-0.2-3.6-0.5c-1.4-0.3-2.7-0.8-3.8-1.3v6.2c2.1,1,4.7,1.5,8,1.5
					c3.8,0,6.7-0.8,8.5-2.5c1.9-1.7,2.8-4.1,2.8-7.2c0-1.8-0.4-3.4-1.1-4.7c-0.7-1.4-1.7-2.4-3-3.2c-1.3-0.8-2.7-1.1-4.4-1.1
					c-0.4,0-0.7,0-1.2,0c-0.4,0-1.1,0.1-2.1,0.3l0.3-3.7h9.5v-6.3h-16l-1.1,14.8l2.8,1.4c1.4-0.4,2.7-0.7,3.8-0.7
					c1.6,0,2.7,0.3,3.5,0.9c0.8,0.6,1.2,1.4,1.2,2.5c0,1.2-0.4,2-1.1,2.6C1162,389,1160.9,389.3,1159.5,389.3z"/>
				<path class="st4" d="M1139.3,296.5c-0.8,0.5-2,0.7-3.6,0.7c-1.1,0-2.3-0.2-3.5-0.5c-1.3-0.3-2.5-0.8-3.7-1.4v6.3
					c1.5,0.6,2.9,1,4.2,1.2c1.3,0.2,2.7,0.3,4.2,0.3c3.7,0,6.5-0.7,8.6-2.2c2.1-1.5,3.1-3.5,3.1-6.1c0-3.8-2.3-6-7-6.6V288
					c2-0.6,3.5-1.5,4.6-2.7c1.1-1.2,1.6-2.7,1.6-4.5c0-2-0.8-3.6-2.5-4.7c-1.6-1.2-3.9-1.7-6.8-1.7c-2,0-3.8,0.2-5.3,0.6
					c-1.5,0.4-3.1,1.2-4.5,2.2l3.1,5c1.9-1.2,3.8-1.8,5.5-1.8c1,0,1.7,0.2,2.3,0.5c0.6,0.4,0.8,0.9,0.8,1.6c0,2-1.9,3-5.8,3h-1.8
					v5.7h1.7c1.4,0,2.6,0.1,3.4,0.3c0.9,0.2,1.5,0.5,1.9,0.9c0.4,0.4,0.6,1,0.6,1.8C1140.5,295.3,1140.1,296,1139.3,296.5z"/>
				<path class="st4" d="M1165.9,280.2c1.5,0,2.9,0.1,4.2,0.4v-5.9c-1.5-0.2-2.8-0.3-4-0.3c-3.2,0-5.9,0.6-8,1.7
					c-2.2,1.1-3.8,2.9-4.9,5.4c-1.1,2.4-1.7,5.6-1.7,9.5c0,3.8,0.9,6.9,2.8,9c1.9,2.1,4.4,3.2,7.8,3.2c3.1,0,5.5-0.9,7.3-2.7
					c1.7-1.8,2.6-4.2,2.6-7.3c0-2.9-0.7-5.1-2.1-6.7c-1.4-1.6-3.3-2.4-5.8-2.4c-2.5,0-4.4,1.1-5.5,3.3h-0.2c0.1-2.5,0.8-4.3,2-5.4
					C1161.5,280.8,1163.4,280.2,1165.9,280.2z M1159.7,290.8c0.5-0.6,1.2-0.9,2.1-0.9c1.8,0,2.6,1.1,2.6,3.4c0,1.3-0.2,2.3-0.8,2.9
					c-0.5,0.6-1.2,0.9-2,0.9c-0.9,0-1.5-0.4-2.1-1.2c-0.5-0.8-0.8-1.8-0.8-3C1158.9,292.1,1159.2,291.4,1159.7,290.8z"/>
			</g>
		</g>
		<g>
			<path class="st5" d="M305.4,240.8h-82.5h-1.9v95.9h84.4V240.8z M301.7,332.9h-76.9v-88.4h76.9V332.9z"/>
			<path class="st5" d="M386.1,240.8h-82.5h-1.9v95.9h84.4V240.8z M382.3,332.9h-76.9v-88.4h76.9V332.9z"/>
			<path class="st5" d="M384.2,240.8h-1.9v95.9h84.4v-95.9H384.2z M462.9,332.9h-76.9v-88.4h76.9V332.9z"/>
			<path class="st5" d="M547.3,240.8h-82.5h-1.9v95.9h84.4V240.8z M543.6,332.9h-76.9v-88.4h76.9V332.9z"/>
			<path class="st5" d="M545.4,240.8h-1.9v95.9h84.4v-95.9H545.4z M624.2,332.9h-76.9v-88.4h76.9V332.9z"/>
			<path class="st5" d="M626.1,240.8h-1.9v95.9h84.4v-95.9H626.1z M704.8,332.9h-76.9v-88.4h76.9V332.9z"/>
			<path class="st5" d="M706.7,240.8h-1.9v95.9h84.4v-95.9H706.7z M785.4,332.9h-76.9v-88.4h76.9V332.9z"/>
			<path class="st5" d="M787.3,240.8h-1.9v95.9h84.4v-95.9H787.3z M866.1,332.9h-76.9v-88.4h76.9V332.9z"/>
			<path class="st5" d="M867.9,240.8h-1.9v95.9h84.4v-95.9H867.9z M946.7,332.9h-76.9v-88.4h76.9V332.9z"/>
			<path class="st5" d="M1031.1,240.8h-82.5h-1.9v95.9h84.4V240.8z M1027.3,332.9h-76.9v-88.4h76.9V332.9z"/>
			<path class="st5" d="M1029.2,240.8h-1.9v95.9h84.4v-95.9H1029.2z M1107.9,332.9h-76.9v-88.4h76.9V332.9z"/>
			<path class="st5" d="M1109.8,240.8h-1.9v95.9h84.4v-95.9H1109.8z M1188.6,332.9h-76.9v-88.4h76.9V332.9z"/>
			<path class="st5" d="M305.4,332.9h-82.5h-1.9v95.9h84.4V332.9z M301.7,425h-76.9v-88.4h76.9V425z"/>
			<path class="st5" d="M386.1,332.9h-82.5h-1.9v95.9h84.4V332.9z M382.3,425h-76.9v-88.4h76.9V425z"/>
			<path class="st5" d="M384.2,332.9h-1.9v95.9h84.4v-95.9H384.2z M462.9,425h-76.9v-88.4h76.9V425z"/>
			<path class="st5" d="M547.3,332.9h-82.5h-1.9v95.9h84.4V332.9z M543.6,425h-76.9v-88.4h76.9V425z"/>
			<path class="st5" d="M545.4,332.9h-1.9v95.9h84.4v-95.9H545.4z M624.2,425h-76.9v-88.4h76.9V425z"/>
			<path class="st5" d="M626.1,332.9h-1.9v95.9h84.4v-95.9H626.1z M704.8,425h-76.9v-88.4h76.9V425z"/>
			<path class="st5" d="M706.7,332.9h-1.9v95.9h84.4v-95.9H706.7z M785.4,425h-76.9v-88.4h76.9V425z"/>
			<path class="st5" d="M787.3,332.9h-1.9v95.9h84.4v-95.9H787.3z M866.1,425h-76.9v-88.4h76.9V425z"/>
			<path class="st5" d="M867.9,332.9h-1.9v95.9h84.4v-95.9H867.9z M946.7,425h-76.9v-88.4h76.9V425z"/>
			<path class="st5" d="M1031.1,332.9h-82.5h-1.9v95.9h84.4V332.9z M1027.3,425h-76.9v-88.4h76.9V425z"/>
			<path class="st5" d="M1029.2,332.9h-1.9v95.9h84.4v-95.9H1029.2z M1107.9,425h-76.9v-88.4h76.9V425z"/>
			<path class="st5" d="M1109.8,332.9h-1.9v95.9h84.4v-95.9H1109.8z M1188.6,425h-76.9v-88.4h76.9V425z"/>
			<path class="st5" d="M305.4,425h-82.5h-1.9v95.9h84.4V425z M301.7,517.1h-76.9v-88.4h76.9V517.1z"/>
			<path class="st5" d="M386.1,425h-82.5h-1.9v95.9h84.4V425z M382.3,517.1h-76.9v-88.4h76.9V517.1z"/>
			<path class="st5" d="M384.2,425h-1.9v95.9h84.4V425H384.2z M462.9,517.1h-76.9v-88.4h76.9V517.1z"/>
			<path class="st5" d="M547.3,425h-82.5h-1.9v95.9h84.4V425z M543.6,517.1h-76.9v-88.4h76.9V517.1z"/>
			<path class="st5" d="M545.4,425h-1.9v95.9h84.4V425H545.4z M624.2,517.1h-76.9v-88.4h76.9V517.1z"/>
			<path class="st5" d="M626.1,425h-1.9v95.9h84.4V425H626.1z M704.8,517.1h-76.9v-88.4h76.9V517.1z"/>
			<path class="st5" d="M706.7,425h-1.9v95.9h84.4V425H706.7z M785.4,517.1h-76.9v-88.4h76.9V517.1z"/>
			<path class="st5" d="M787.3,425h-1.9v95.9h84.4V425H787.3z M866.1,517.1h-76.9v-88.4h76.9V517.1z"/>
			<path class="st5" d="M867.9,425h-1.9v95.9h84.4V425H867.9z M946.7,517.1h-76.9v-88.4h76.9V517.1z"/>
			<path class="st5" d="M1031.1,425h-82.5h-1.9v95.9h84.4V425z M1027.3,517.1h-76.9v-88.4h76.9V517.1z"/>
			<path class="st5" d="M1029.2,425h-1.9v95.9h84.4V425H1029.2z M1107.9,517.1h-76.9v-88.4h76.9V517.1z"/>
			<path class="st5" d="M1109.8,425h-1.9v95.9h84.4V425H1109.8z M1188.6,517.1h-76.9v-88.4h76.9V517.1z"/>
			<path class="st5" d="M547.3,517.1H222.9h-1.9v92.6h326.2V517.1z M543.6,606H224.8v-85.1h318.7V606z"/>
			<path class="st5" d="M545.4,517.1h-1.9v92.6h326.2v-92.6H545.4z M866.1,606H547.3v-85.1h318.7V606z"/>
			<path class="st5" d="M1192.3,517.1H867.9h-1.9v92.6h326.2V517.1z M1188.6,606H869.8v-85.1h318.8V606z"/>
			<path class="st5" d="M386.1,606H222.9h-1.9v92.6h165V606z M382.3,694.8H224.8v-85.1h157.5V694.8z"/>
			<path class="st5" d="M706.7,606h-1.9v92.6h165V606H706.7z M866.1,694.8H708.6v-85.1h157.5V694.8z"/>
			<path class="st5" d="M547.3,606H384.2h-1.9v92.6h165V606z M543.6,694.8H386.1v-85.1h157.5V694.8z"/>
			<path class="st5" d="M1029.2,606h-1.9v92.6h165V606H1029.2z M1188.6,694.8h-157.5v-85.1h157.5V694.8z"/>
			<path class="st5" d="M1031.1,606H867.9h-1.9v92.6h165V606z M1027.3,694.8H869.8v-85.1h157.5V694.8z"/>
			<path class="st5" d="M545.4,606h-1.9v92.6h165V606H545.4z M704.8,694.8H547.3v-85.1h157.5V694.8z"/>
			<path class="st5" d="M1272.9,240.8h-82.5h-1.9v95.9h84.4V240.8z M1269.2,332.9h-76.9v-88.4h76.9V332.9z"/>
			<path class="st5" d="M1272.9,332.9h-82.5h-1.9v95.9h84.4V332.9z M1269.2,425h-76.9v-88.4h76.9V425z"/>
			<path class="st5" d="M1272.9,425h-82.5h-1.9v95.9h84.4V425z M1269.2,517.1h-76.9v-88.4h76.9V517.1z"/>
			<path class="st5" d="M1263,252.1h-62.7h-1.9v73.3h64.6V252.1z M1259.3,321.6h-57.1v-65.8h57.1V321.6z"/>
			<path class="st5" d="M1263,344.2h-62.7h-1.9v73.3h64.6V344.2z M1259.3,413.7h-57.1V348h57.1V413.7z"/>
			<path class="st5" d="M1263,436.3h-62.7h-1.9v73.3h64.6V436.3z M1259.3,505.8h-57.1v-65.8h57.1V505.8z"/>
			<path class="st5" d="M486.9,533.8H283.3h-1.9v59.3h205.5V533.8z M483.2,589.3h-198v-51.8h198V589.3z"/>
			<path class="st5" d="M605.8,533.8H604v59.3h205.5v-59.3H605.8z M805.7,589.3h-198v-51.8h198V589.3z"/>
			<path class="st5" d="M1131.9,533.8H928.3h-1.9v59.3h205.5V533.8z M1128.2,589.3h-198v-51.8h198V589.3z"/>
			<path class="st5" d="M225,521.1V240.6h-67.8c-8.3,0-15.9,3.4-21.3,8.9c-5.5,5.5-8.9,13-8.9,21.3v220.1c0,8.3,3.4,15.8,8.9,21.3
				c5.5,5.5,13,8.9,21.3,8.9H225z M131.2,490.9V270.8c0-7.2,2.9-13.7,7.7-18.4c4.7-4.7,11.2-7.6,18.4-7.6h63.6v272.1h-63.6
				c-7.2,0-13.7-2.9-18.4-7.7C134.2,504.6,131.2,498,131.2,490.9z"/>
			<path class="st5" d="M210.7,415.5c8.9-8.9,14.3-21.1,14.3-34.6c0-13.5-5.5-25.8-14.3-34.6c-8.9-8.9-21.1-14.3-34.6-14.3
				c-13.5,0-25.8,5.5-34.6,14.3c-8.9,8.9-14.3,21.1-14.3,34.6c0,13.5,5.5,25.8,14.3,34.6c8.9,8.9,21.1,14.3,34.6,14.3
				C189.6,429.8,201.8,424.3,210.7,415.5z M131.2,380.8c0-12.4,5-23.6,13.1-31.7c8.1-8.1,19.3-13.1,31.7-13.1
				c12.4,0,23.6,5,31.7,13.1c8.1,8.1,13.1,19.3,13.1,31.7c0,12.4-5,23.6-13.1,31.7c-8.1,8.1-19.3,13.1-31.7,13.1
				c-12.4,0-23.6-5-31.7-13.1C136.2,404.4,131.2,393.2,131.2,380.8z"/>
		</g>
	</g>
	<g>
		<g>
			<circle class="st6" cx="514.7" cy="795.5" r="24.3"/>
			<path class="st4" d="M490.4,795.5c0,1.1,0.1,2.2,0.2,3.2h15.7l-11.2,11.2c1.4,1.9,3.1,3.6,5,5l11.2-11.2v15.8
				c1.1,0.1,2.2,0.2,3.3,0.2c1.3,0,2.5-0.1,3.8-0.3v-15.8l11,11c1.9-1.5,3.6-3.2,4.9-5.1l-10.9-10.9h15.3c0.1-1.1,0.2-2.1,0.2-3.2
				c0-1.3-0.1-2.6-0.3-3.9h-15.2l10.7-10.7c-1.4-1.9-3.1-3.6-5-5l-10.6,10.6v-15.1c-1.2-0.2-2.5-0.3-3.8-0.3c-1.1,0-2.2,0.1-3.3,0.2
				v15.2l-10.8-10.8c-1.9,1.4-3.7,3.1-5.1,4.9l10.9,10.9h-15.6C490.5,792.9,490.4,794.2,490.4,795.5z"/>
			<circle class="st6" cx="514.7" cy="795.5" r="16.3"/>
			<path class="st4" d="M527.1,807.9c3.2-3.2,5.1-7.5,5.1-12.4c0-4.8-2-9.2-5.1-12.4c-3.2-3.2-7.5-5.1-12.4-5.1
				c-4.8,0-9.2,2-12.4,5.1c-3.2,3.2-5.1,7.5-5.1,12.4c0,4.8,2,9.2,5.1,12.4c3.2,3.2,7.5,5.1,12.4,5.1
				C519.5,813,523.9,811.1,527.1,807.9z M499.5,795.5c0-4.2,1.7-8,4.4-10.7c2.7-2.7,6.5-4.4,10.7-4.4c4.2,0,8,1.7,10.7,4.4
				c2.7,2.7,4.4,6.5,4.4,10.7c0,4.2-1.7,8-4.4,10.7c-2.7,2.7-6.5,4.4-10.7,4.4c-4.2,0-8-1.7-10.7-4.4
				C501.2,803.5,499.5,799.7,499.5,795.5z"/>
		</g>
		<g>
			<circle class="st1" cx="607.3" cy="795.5" r="24.3"/>
			<path class="st4" d="M583,795.5c0,1.1,0.1,2.2,0.2,3.2H599l-11.2,11.2c1.4,1.9,3.1,3.6,5,5l11.2-11.2v15.8
				c1.1,0.1,2.2,0.2,3.3,0.2c1.3,0,2.5-0.1,3.8-0.3v-15.8l11,11c1.9-1.5,3.6-3.2,4.9-5.1l-10.9-10.9h15.3c0.1-1.1,0.2-2.1,0.2-3.2
				c0-1.3-0.1-2.6-0.3-3.9h-15.2l10.7-10.7c-1.4-1.9-3.1-3.6-5-5l-10.6,10.6v-15.1c-1.2-0.2-2.5-0.3-3.8-0.3c-1.1,0-2.2,0.1-3.3,0.2
				v15.2l-10.8-10.8c-1.9,1.4-3.7,3.1-5.1,4.9l10.9,10.9h-15.6C583.2,792.9,583,794.2,583,795.5z"/>
			<circle class="st1" cx="607.3" cy="795.5" r="16.3"/>
			<path class="st4" d="M619.7,807.9c3.2-3.2,5.1-7.5,5.1-12.4c0-4.8-2-9.2-5.1-12.4c-3.2-3.2-7.5-5.1-12.4-5.1
				c-4.8,0-9.2,2-12.4,5.1c-3.2,3.2-5.1,7.5-5.1,12.4c0,4.8,2,9.2,5.1,12.4c3.2,3.2,7.5,5.1,12.4,5.1
				C612.2,813,616.5,811.1,619.7,807.9z M592.2,795.5c0-4.2,1.7-8,4.4-10.7c2.7-2.7,6.5-4.4,10.7-4.4c4.2,0,8,1.7,10.7,4.4
				c2.7,2.7,4.4,6.5,4.4,10.7c0,4.2-1.7,8-4.4,10.7c-2.7,2.7-6.5,4.4-10.7,4.4c-4.2,0-8-1.7-10.7-4.4
				C593.9,803.5,592.2,799.7,592.2,795.5z"/>
		</g>
		<g>
			<circle class="st5" cx="700" cy="795.5" r="24.3"/>
			<path class="st4" d="M675.7,795.5c0,1.1,0.1,2.2,0.2,3.2h15.7l-11.2,11.2c1.4,1.9,3.1,3.6,5,5l11.2-11.2v15.8
				c1.1,0.1,2.2,0.2,3.3,0.2c1.3,0,2.5-0.1,3.8-0.3v-15.8l11,11c1.9-1.5,3.6-3.2,4.9-5.1l-10.9-10.9h15.3c0.1-1.1,0.2-2.1,0.2-3.2
				c0-1.3-0.1-2.6-0.3-3.9h-15.2l10.7-10.7c-1.4-1.9-3.1-3.6-5-5l-10.6,10.6v-15.1c-1.2-0.2-2.5-0.3-3.8-0.3c-1.1,0-2.2,0.1-3.3,0.2
				v15.2l-10.8-10.8c-1.9,1.4-3.7,3.1-5.1,4.9l10.9,10.9H676C675.8,792.9,675.7,794.2,675.7,795.5z"/>
			<circle class="st5" cx="700" cy="795.5" r="16.3"/>
			<path class="st4" d="M712.4,807.9c3.2-3.2,5.1-7.5,5.1-12.4c0-4.8-2-9.2-5.1-12.4c-3.2-3.2-7.5-5.1-12.4-5.1
				c-4.8,0-9.2,2-12.4,5.1c-3.2,3.2-5.1,7.5-5.1,12.4c0,4.8,2,9.2,5.1,12.4c3.2,3.2,7.5,5.1,12.4,5.1
				C704.8,813,709.2,811.1,712.4,807.9z M684.9,795.5c0-4.2,1.7-8,4.4-10.7c2.7-2.7,6.5-4.4,10.7-4.4c4.2,0,8,1.7,10.7,4.4
				c2.7,2.7,4.4,6.5,4.4,10.7c0,4.2-1.7,8-4.4,10.7c-2.7,2.7-6.5,4.4-10.7,4.4c-4.2,0-8-1.7-10.7-4.4
				C686.6,803.5,684.9,799.7,684.9,795.5z"/>
		</g>
		<g>
			<circle class="st2" cx="792.7" cy="795.5" r="24.3"/>
			<path class="st4" d="M768.4,795.5c0,1.1,0.1,2.2,0.2,3.2h15.7l-11.2,11.2c1.4,1.9,3.1,3.6,5,5l11.2-11.2v15.8
				c1.1,0.1,2.2,0.2,3.3,0.2c1.3,0,2.5-0.1,3.8-0.3v-15.8l11,11c1.9-1.5,3.6-3.2,4.9-5.1l-10.9-10.9h15.3c0.1-1.1,0.2-2.1,0.2-3.2
				c0-1.3-0.1-2.6-0.3-3.9h-15.2l10.7-10.7c-1.4-1.9-3.1-3.6-5-5l-10.6,10.6v-15.1c-1.2-0.2-2.5-0.3-3.8-0.3c-1.1,0-2.2,0.1-3.3,0.2
				v15.2l-10.8-10.8c-1.9,1.4-3.7,3.1-5.1,4.9l10.9,10.9h-15.6C768.5,792.9,768.4,794.2,768.4,795.5z"/>
			<circle class="st2" cx="792.7" cy="795.5" r="16.3"/>
			<path class="st4" d="M805,807.9c3.2-3.2,5.1-7.5,5.1-12.4c0-4.8-2-9.2-5.1-12.4c-3.2-3.2-7.5-5.1-12.4-5.1c-4.8,0-9.2,2-12.4,5.1
				c-3.2,3.2-5.1,7.5-5.1,12.4c0,4.8,2,9.2,5.1,12.4c3.2,3.2,7.5,5.1,12.4,5.1C797.5,813,801.9,811.1,805,807.9z M777.5,795.5
				c0-4.2,1.7-8,4.4-10.7c2.7-2.7,6.5-4.4,10.7-4.4c4.2,0,8,1.7,10.7,4.4c2.7,2.7,4.4,6.5,4.4,10.7c0,4.2-1.7,8-4.4,10.7
				c-2.7,2.7-6.5,4.4-10.7,4.4c-4.2,0-8-1.7-10.7-4.4C779.2,803.5,777.5,799.7,777.5,795.5z"/>
		</g>
		<g>
			<circle class="st5" cx="885.3" cy="795.5" r="24.3"/>
			<path class="st4" d="M861,795.5c0,1.1,0.1,2.2,0.2,3.2H877l-11.2,11.2c1.4,1.9,3.1,3.6,5,5l11.2-11.2v15.8
				c1.1,0.1,2.2,0.2,3.3,0.2c1.3,0,2.5-0.1,3.8-0.3v-15.8l11,11c1.9-1.5,3.6-3.2,4.9-5.1l-10.9-10.9h15.3c0.1-1.1,0.2-2.1,0.2-3.2
				c0-1.3-0.1-2.6-0.3-3.9h-15.2l10.7-10.7c-1.4-1.9-3.1-3.6-5-5l-10.6,10.6v-15.1c-1.2-0.2-2.5-0.3-3.8-0.3c-1.1,0-2.2,0.1-3.3,0.2
				v15.2l-10.8-10.8c-1.9,1.4-3.7,3.1-5.1,4.9l10.9,10.9h-15.6C861.1,792.9,861,794.2,861,795.5z"/>
			<circle class="st5" cx="885.3" cy="795.5" r="16.3"/>
			<path class="st4" d="M897.7,807.9c3.2-3.2,5.1-7.5,5.1-12.4c0-4.8-2-9.2-5.1-12.4c-3.2-3.2-7.5-5.1-12.4-5.1
				c-4.8,0-9.2,2-12.4,5.1c-3.2,3.2-5.1,7.5-5.1,12.4c0,4.8,2,9.2,5.1,12.4c3.2,3.2,7.5,5.1,12.4,5.1
				C890.1,813,894.5,811.1,897.7,807.9z M870.2,795.5c0-4.2,1.7-8,4.4-10.7c2.7-2.7,6.5-4.4,10.7-4.4c4.2,0,8,1.7,10.7,4.4
				c2.7,2.7,4.4,6.5,4.4,10.7c0,4.2-1.7,8-4.4,10.7c-2.7,2.7-6.5,4.4-10.7,4.4c-4.2,0-8-1.7-10.7-4.4
				C871.9,803.5,870.2,799.7,870.2,795.5z"/>
		</g>
	</g>
</g>
</svg>
